<svg width="375" height="314" viewBox="0 0 375 314" fill="none" xmlns="http://www.w3.org/2000/svg">
<rect width="375" height="314" fill="white"/>
<g clip-path="url(#clip0)">
<path opacity="0.1" d="M46.6486 96.3347C53.5299 111.877 44.75 129.78 34.4314 143.275C30.9709 147.792 27.1671 152.521 26.6817 158.207C26.1038 165.141 30.7992 171.517 36.3729 175.684C46.5331 183.279 60.4145 185.626 72.5063 181.796C82.957 178.494 91.7436 171.009 102.283 167.991C119.923 162.942 138.605 171.312 153.698 181.737C164.38 189.113 175.821 198.081 188.699 196.506C197.766 195.397 205.46 189.034 210.677 181.538C213.196 177.906 215.389 173.868 219.061 171.425C221.243 169.972 223.806 169.202 226.371 168.654C249.782 163.652 274.623 175.862 297.723 169.582C313.325 165.339 325.767 153.006 333.5 138.811C341.233 124.616 344.846 108.582 347.854 92.6959C349.99 81.4065 351.763 69.2255 346.863 58.8376C341.666 47.8486 329.637 41.1886 317.548 39.9437C305.46 38.6989 293.332 42.1494 282.194 47.0165C268.276 53.1021 254.636 61.6211 239.444 61.6508C229.099 61.6707 219.236 57.6885 209.343 54.6738C192.774 49.6119 175.604 47.0958 158.456 44.7745C142.049 42.5523 125.483 40.482 108.976 41.8027C97.2974 42.7306 86.9854 47.1948 75.6531 49.2586C68.2666 50.6058 60.8438 49.5888 53.596 51.8704C44.6807 54.6606 35.488 61.1357 34.996 71.3223C34.5304 81.0069 42.9967 88.0831 46.6486 96.3347Z" fill="#5BC49D"/>
<g opacity="0.5">
<path opacity="0.5" d="M253.441 60.4788C251.79 60.9543 249.739 62.1826 248.735 65.5539C246.754 72.1578 251.337 76.6749 249.835 83.5331C249.424 85.3565 248.637 87.074 247.523 88.5752C245.684 91.0682 243.683 92.2503 241.748 93.997C239.289 96.228 237.527 99.1221 236.673 102.331C235.738 105.873 235.66 109.587 236.445 113.165C237.136 116.157 238.311 118.333 239.335 120.759C240.609 123.856 241.604 127.061 242.306 130.335C242.697 131.926 242.918 133.555 242.967 135.192C243 137.249 242.68 139.485 242.366 141.691L239.569 161.209C239.196 163.807 238.82 166.449 238.806 168.922C238.786 171.778 239.245 174.231 239.701 176.625C240.692 181.79 241.738 187.149 243.994 189.873C246.249 192.597 250.073 191.653 252.427 186.092C254.666 180.809 254.712 173.743 256.686 168.09C259.797 159.174 265.985 157.986 269.416 149.49C272.717 141.341 271.7 131.329 273.378 122.044C274.573 115.384 277.119 109.308 278.628 102.727C280.797 93.2475 280.583 83.4076 278.849 76.1235C277.116 68.8394 274.005 63.8369 270.571 60.0429C269.115 58.4349 267.56 57.0051 265.731 56.8631C263.786 56.7146 262.098 59.1745 260.167 59.8976C257.928 60.733 255.696 59.8382 253.441 60.4788Z" fill="#5BC49D"/>
<path opacity="0.5" d="M263.971 57.3254C263.971 57.3254 260.669 141.618 246.823 191.326" stroke="#535461" stroke-width="2" stroke-miterlimit="10"/>
<path opacity="0.5" d="M248.649 65.9666C248.649 65.9666 263.436 79.4419 260.646 105.118" stroke="#535461" stroke-width="2" stroke-miterlimit="10"/>
<path opacity="0.5" d="M236.227 104.309C236.227 104.309 260.53 109.196 258.727 123.731" stroke="#535461" stroke-width="2" stroke-miterlimit="10"/>
<path opacity="0.5" d="M278.879 75.9221C278.879 75.9221 269.049 84.5303 260.286 108.912" stroke="#535461" stroke-width="2" stroke-miterlimit="10"/>
<path opacity="0.5" d="M269.267 149.612C269.267 149.612 262.557 154.895 257.172 136.467" stroke="#535461" stroke-width="2" stroke-miterlimit="10"/>
<path opacity="0.5" d="M240.322 160.36C240.322 160.36 254.005 158.573 255.267 150.002" stroke="#535461" stroke-width="2" stroke-miterlimit="10"/>
</g>
<path d="M286.516 3.94263C283.129 4.44453 279.054 6.01296 277.38 10.8569C274.094 20.3534 284.086 27.5418 281.785 37.4642C281.095 40.4359 279.394 42.853 277.601 44.6162C274.088 48.0701 270.089 49.5691 266.292 51.9135C262.495 54.2579 258.552 57.9363 256.772 63.586C255.059 69.021 255.802 75.0273 257.581 79.5147C259.361 84.002 262.055 87.3469 264.463 91.0385C267.394 95.5832 269.845 100.42 271.776 105.471C272.638 107.694 273.427 110.038 273.708 112.699C274.018 115.734 273.626 119 273.236 122.196L269.762 150.593C269.3 154.373 268.834 158.22 269.102 161.862C269.402 166.066 270.644 169.731 271.869 173.31C274.51 181.03 277.337 189.051 282.313 193.327C287.289 197.603 295.108 196.668 299.315 188.757C303.32 181.225 302.584 170.84 305.998 162.751C311.38 150.002 324.043 148.971 330.135 136.87C335.983 125.26 332.711 110.408 335.059 96.916C336.743 87.2478 341.296 78.6066 343.644 69.0937C347.012 55.3872 345.404 40.8751 340.946 29.9423C336.488 19.0095 329.462 11.273 321.907 5.27992C318.704 2.74071 315.303 0.44585 311.512 0.0231986C307.471 -0.425868 304.248 2.97515 300.355 3.83036C295.831 4.84406 291.109 3.26242 286.516 3.94263Z" fill="#5BC49D"/>
<path d="M307.933 0.541626C307.933 0.541626 311.119 124.286 288.333 195.843" stroke="#535461" stroke-width="2" stroke-miterlimit="10"/>
<path d="M277.248 11.4513C277.248 11.4513 309.482 33.0527 306.721 70.53" stroke="#535461" stroke-width="2" stroke-miterlimit="10"/>
<path d="M256.089 66.4454C256.089 66.4454 306.965 76.523 304.958 97.7117" stroke="#535461" stroke-width="2" stroke-miterlimit="10"/>
<path d="M340.992 29.6979C340.992 29.6979 321.656 41.2085 306.424 76.0739" stroke="#535461" stroke-width="2" stroke-miterlimit="10"/>
<path d="M329.838 137.074C329.838 137.074 316.578 144.055 303.248 116.272" stroke="#535461" stroke-width="2" stroke-miterlimit="10"/>
<path d="M271.185 149.473C271.185 149.473 299.295 148.463 300.903 135.995" stroke="#535461" stroke-width="2" stroke-miterlimit="10"/>
<path opacity="0.1" d="M184.205 206.634C262.196 206.634 325.42 200.561 325.42 193.069C325.42 185.578 262.196 179.505 184.205 179.505C106.214 179.505 42.9901 185.578 42.9901 193.069C42.9901 200.561 106.214 206.634 184.205 206.634Z" fill="#5BC49D"/>
<path d="M45.2057 176.922C45.2057 176.922 47.9728 180.555 43.9279 186.003C39.883 191.451 36.548 196.08 37.9117 199.485C37.9117 199.485 44.0137 189.338 48.9799 189.196C53.946 189.054 50.6705 183.025 45.2057 176.922Z" fill="#5BC49D"/>
<path opacity="0.1" d="M45.2057 176.922C45.4468 177.272 45.637 177.655 45.7704 178.058C50.6176 183.751 53.1965 189.064 48.5407 189.199C44.2019 189.325 38.998 197.081 37.7499 199.042C37.7911 199.194 37.8407 199.342 37.8985 199.488C37.8985 199.488 44.0005 189.341 48.9667 189.199C53.9328 189.057 50.6705 183.025 45.2057 176.922Z" fill="#30475E"/>
<path d="M50.3502 181.535C50.3502 182.81 50.2082 183.847 50.02 183.847C49.8317 183.847 49.6898 182.813 49.6898 181.535C49.6898 180.257 49.8681 180.875 50.0431 180.875C50.2181 180.875 50.3502 180.261 50.3502 181.535Z" fill="#FFD037"/>
<path d="M52.1101 183.054C50.9907 183.665 50.0166 184.045 49.9341 183.876C49.8515 183.708 50.6869 183.1 51.8063 182.493C52.9257 181.885 52.4832 182.328 52.5691 182.493C52.6549 182.658 53.2328 182.44 52.1101 183.054Z" fill="#FFD037"/>
<path d="M30.5879 176.922C30.5879 176.922 27.8209 180.555 31.8658 186.003C35.9107 191.451 39.2325 196.08 37.9117 199.485C37.9117 199.485 31.8097 189.338 26.8435 189.196C21.8774 189.054 25.1265 183.025 30.5879 176.922Z" fill="#5BC49D"/>
<path opacity="0.1" d="M30.5879 176.922C30.3468 177.272 30.1567 177.655 30.0233 178.058C25.176 183.751 22.5972 189.064 27.253 189.199C31.5917 189.325 36.7956 197.081 38.0438 199.042C38.0026 199.194 37.953 199.342 37.8952 199.488C37.8952 199.488 31.7932 189.341 26.827 189.199C21.8609 189.057 25.1265 183.025 30.5879 176.922Z" fill="#30475E"/>
<path d="M25.4468 181.535C25.4468 182.81 25.5888 183.847 25.777 183.847C25.9652 183.847 26.1072 182.813 26.1072 181.535C26.1072 180.257 25.9289 180.875 25.7539 180.875C25.5789 180.875 25.4468 180.261 25.4468 181.535Z" fill="#FFD037"/>
<path d="M23.6802 183.054C24.7996 183.665 25.7736 184.045 25.8562 183.876C25.9387 183.708 25.1033 183.1 23.984 182.493C22.8646 181.885 23.3071 182.328 23.2212 182.493C23.1354 182.658 22.5608 182.44 23.6802 183.054Z" fill="#FFD037"/>
<path d="M26.3251 199.013C26.3251 199.013 34.0616 198.775 36.3928 197.114C38.7239 195.453 48.2798 193.482 48.8709 196.123C49.4619 198.765 60.4971 209.367 51.7634 209.437C43.0297 209.506 31.4695 208.076 29.1416 206.66C26.8138 205.243 26.3251 199.013 26.3251 199.013Z" fill="#A8A8A8"/>
<path opacity="0.2" d="M51.9219 208.526C43.1882 208.595 31.628 207.165 29.3001 205.749C27.527 204.669 26.8204 200.796 26.5859 199.009H26.3284C26.3284 199.009 26.8171 205.25 29.1449 206.667C31.4728 208.083 43.033 209.516 51.7799 209.447C54.3026 209.427 55.171 208.529 55.1248 207.202C54.7517 208.004 53.7974 208.506 51.9219 208.526Z" fill="#30475E"/>
<path d="M127.022 148.902C127.022 148.902 165.737 124.167 192.503 124.167C192.503 124.167 224.727 119.148 259.777 127.631C294.827 136.114 307.774 147.112 317.492 143.883L276.667 145.078L127.022 148.902Z" fill="#8CD0F3"/>
<path opacity="0.1" d="M127.022 148.902C127.022 148.902 165.737 124.167 192.503 124.167C192.503 124.167 224.727 119.148 259.777 127.631C294.827 136.114 307.774 147.112 317.492 143.883L276.667 145.078L127.022 148.902Z" fill="#8CD0F3"/>
<path d="M309.505 186.759H73.388L79.8797 160.749L120.032 150.074L309.505 155.054V186.759Z" fill="#121C3F"/>
<path d="M321.933 170.507V178.808C321.933 178.808 314.923 183.893 314.286 187.875C314.286 187.875 304.248 190.424 301.382 190.424C301.121 190.424 300.837 190.424 300.54 190.454C300.988 189.252 301.338 188.017 301.587 186.759C302.29 183.229 302.201 179.588 301.327 176.097C300.454 172.606 298.816 169.352 296.534 166.569C294.251 163.787 291.379 161.546 288.126 160.007C284.873 158.468 281.319 157.67 277.72 157.67C274.121 157.67 270.567 158.468 267.314 160.007C264.061 161.546 261.189 163.787 258.906 166.569C256.624 169.352 254.986 172.606 254.113 176.097C253.239 179.588 253.15 183.229 253.853 186.759C254.191 188.461 254.71 190.121 255.402 191.712H241.791C241.791 191.712 241.666 191.755 241.461 191.844C240.731 192.174 239.011 193.046 238.763 194.416H125.965L123.654 194.396C124.145 193.572 124.586 192.718 124.974 191.841C125.699 190.215 126.238 188.512 126.579 186.766C127.251 183.43 127.216 179.99 126.476 176.669C125.737 173.347 124.31 170.218 122.287 167.481C120.264 164.745 117.69 162.463 114.732 160.783C111.773 159.102 108.495 158.06 105.109 157.724C101.722 157.388 98.3035 157.765 95.0721 158.831C91.8407 159.897 88.8685 161.629 86.3472 163.914C83.8258 166.199 81.8113 168.987 80.4335 172.098C79.0556 175.21 78.345 178.575 78.3475 181.978C78.3474 183.582 78.5044 185.182 78.8164 186.756C79.3485 189.42 80.324 191.976 81.7023 194.317C80.0909 193.924 76.5743 192.808 76.5743 192.808C76.5743 192.808 61.5999 191.217 57.7762 187.855L58.3541 187.456L60.8041 185.782L59.6881 181.489C59.5534 181.308 59.4424 181.111 59.3579 180.901C59.0607 180.185 58.7999 178.854 59.8499 177.183C61.4414 174.634 60.6457 165.554 60.6457 165.554C60.6457 165.554 82.3131 150.579 125.011 147.231C125.011 147.231 126.031 148.024 128.138 148.189C129.564 148.304 131.489 148.129 133.936 147.231C133.936 147.231 137.439 148.823 152.427 140.221C152.427 140.221 177.921 122.694 211.38 124.293C211.38 124.293 245.793 122.219 275.108 133.538C287.741 138.412 297.353 141.01 304.205 142.384C310.532 143.655 314.504 143.89 316.323 143.909H316.363C316.957 143.909 317.311 143.909 317.436 143.909H317.489C317.489 143.909 317.489 147.703 317.69 152.184V152.207C317.763 153.766 317.862 155.407 318.001 157.002V157.101C318.384 161.542 319.044 165.577 320.19 166.376L321.933 170.507Z" fill="#2856B8"/>
<path d="M64.0896 165.191C64.0896 165.191 73.6885 157.702 85.6383 159.297C85.6383 159.297 74.7649 167.901 69.8648 167.343L69.0294 166.627L64.0764 166.904C64.0764 166.904 63.3368 165.749 64.0896 165.191Z" fill="#8CD0F3"/>
<path opacity="0.2" d="M73.4077 178.147V182.569C73.4077 182.569 73.0776 186.792 69.2638 186.95L58.3673 187.489L60.8141 185.815L59.698 181.522C59.5627 181.343 59.4517 181.146 59.3678 180.938C60.3584 180.026 62.6929 178.488 67.4411 178.157L73.4077 178.147Z" fill="white"/>
<path opacity="0.2" d="M124.113 159.617L132.477 159.287C132.477 159.287 129.092 161.955 126.701 162.196C124.311 162.437 124.113 159.617 124.113 159.617Z" fill="white"/>
<path opacity="0.2" d="M141.719 184.989C141.719 184.989 217.357 174.472 235.64 177.817C235.64 177.817 241.015 178.177 243.049 180.327C245.083 182.476 243.049 181.083 243.049 181.083L141.719 184.989Z" fill="white"/>
<path opacity="0.5" d="M184.06 155.473C184.06 155.473 185.017 153.68 186.569 153.64L196.647 153.122C196.647 153.122 196.488 154.515 194.695 155.034L184.06 155.473Z" fill="#18218A"/>
<path opacity="0.5" d="M242.372 152.445C242.372 152.445 243.33 150.652 244.882 150.612L254.96 150.081C254.96 150.081 254.801 151.474 253.008 151.993L242.372 152.445Z" fill="#18218A"/>
<path d="M207.963 127.878L200.23 148.159L172.348 148.189H165.169H158.925H153.527H147.411C147.411 148.189 151.136 145.455 157.136 141.971C159.117 140.815 161.365 139.581 163.806 138.339C166.051 137.19 168.468 136.028 171.007 134.925C172.988 134.053 175.075 133.214 177.208 132.432C186.88 128.895 197.75 126.521 207.963 127.878Z" fill="#8CD0F3"/>
<path d="M251.773 142.688C251.773 142.688 240.124 144.415 229.006 145.693C224.757 146.181 220.586 146.604 217.172 146.838L216.697 146.871C215.376 146.957 214.151 147.013 213.111 147.033C211.46 147.063 210.225 146.99 209.607 146.792L212.82 127.393C212.82 127.393 216.782 127.436 222.643 127.723L223.925 127.793C225.143 127.862 226.427 127.941 227.768 128.034C229.683 128.166 231.701 128.324 233.781 128.516C243.825 129.437 255.204 131.091 262.409 134.07C277.74 140.416 251.773 142.688 251.773 142.688Z" fill="#8CD0F3"/>
<path d="M305.463 152.445V157.623C305.463 157.623 297.099 157.741 298.892 156.071C300.053 154.961 301.106 153.745 302.039 152.438L305.463 152.445Z" fill="#8CD0F3"/>
<path d="M317.994 157.094L311.202 157.626V151.402C311.202 151.402 314.349 146.98 317.495 151.88L317.677 152.168L317.994 157.094Z" fill="#8CD0F3"/>
<path d="M102.706 201.416C113.442 201.416 122.145 192.713 122.145 181.978C122.145 171.242 113.442 162.539 102.706 162.539C91.9704 162.539 83.2675 171.242 83.2675 181.978C83.2675 192.713 91.9704 201.416 102.706 201.416Z" fill="#182A7C"/>
<path d="M118.298 181.961C118.305 185.972 116.771 189.833 114.013 192.746C111.255 195.658 107.484 197.4 103.479 197.612C99.473 197.823 95.5392 196.488 92.4898 193.882C89.4404 191.277 87.5084 187.599 87.0928 183.61C86.6772 179.62 87.8099 175.623 90.2568 172.445C92.7037 169.267 96.2779 167.15 100.241 166.531C104.204 165.913 108.253 166.84 111.552 169.122C114.851 171.403 117.148 174.865 117.968 178.791C118.185 179.834 118.296 180.896 118.298 181.961Z" fill="#3F8FFE"/>
<path opacity="0.5" d="M102.683 195.394C110.085 195.394 116.086 189.378 116.086 181.958C116.086 174.538 110.085 168.522 102.683 168.522C95.2809 168.522 89.2803 174.538 89.2803 181.958C89.2803 189.378 95.2809 195.394 102.683 195.394Z" fill="#18218A"/>
<path d="M107.167 166.96V167.528L102.706 182.298L99.1268 166.716C101.783 166.097 104.554 166.181 107.167 166.96Z" fill="#3F8FFE"/>
<path d="M107.134 196.969C104.579 197.725 101.873 197.819 99.272 197.239L102.703 182.298L107.134 196.969Z" fill="#3F8FFE"/>
<path d="M118.298 181.961C118.3 183.591 118.048 185.21 117.552 186.762H117.489L102.719 182.301L117.994 178.795C118.202 179.837 118.304 180.898 118.298 181.961Z" fill="#3F8FFE"/>
<path d="M102.706 182.298L87.9364 186.759H87.8209C86.9983 184.18 86.8516 181.433 87.3949 178.781L102.706 182.298Z" fill="#3F8FFE"/>
<path d="M102.683 183.672C103.629 183.672 104.397 182.904 104.397 181.958C104.397 181.011 103.629 180.244 102.683 180.244C101.736 180.244 100.969 181.011 100.969 181.958C100.969 182.904 101.736 183.672 102.683 183.672Z" fill="#182A7C"/>
<path d="M277.601 201.416C288.337 201.416 297.04 192.713 297.04 181.978C297.04 171.242 288.337 162.539 277.601 162.539C266.866 162.539 258.163 171.242 258.163 181.978C258.163 192.713 266.866 201.416 277.601 201.416Z" fill="#182A7C"/>
<path d="M293.196 181.961C293.203 185.972 291.669 189.833 288.912 192.746C286.154 195.658 282.382 197.4 278.377 197.612C274.371 197.823 270.438 196.488 267.388 193.882C264.339 191.277 262.407 187.599 261.991 183.61C261.576 179.62 262.708 175.623 265.155 172.445C267.602 169.267 271.176 167.15 275.139 166.531C279.102 165.913 283.152 166.84 286.451 169.122C289.75 171.403 292.046 174.865 292.866 178.791C293.084 179.834 293.194 180.896 293.196 181.961Z" fill="#3F8FFE"/>
<path opacity="0.5" d="M277.581 195.394C284.983 195.394 290.984 189.378 290.984 181.958C290.984 174.538 284.983 168.522 277.581 168.522C270.179 168.522 264.179 174.538 264.179 181.958C264.179 189.378 270.179 195.394 277.581 195.394Z" fill="#18218A"/>
<path d="M282.062 166.96V167.528L277.601 182.298L274.022 166.716C276.678 166.097 279.449 166.181 282.062 166.96Z" fill="#3F8FFE"/>
<path d="M282.032 196.969C279.477 197.725 276.772 197.819 274.17 197.239L277.601 182.298L282.032 196.969Z" fill="#3F8FFE"/>
<path d="M293.196 181.961C293.199 183.591 292.947 185.21 292.45 186.762H292.374L277.601 182.298L292.876 178.791C293.09 179.834 293.197 180.897 293.196 181.961Z" fill="#3F8FFE"/>
<path d="M277.601 182.298L262.831 186.759H262.716C261.893 184.18 261.747 181.433 262.29 178.781L277.601 182.298Z" fill="#3F8FFE"/>
<path d="M277.581 183.672C278.528 183.672 279.295 182.904 279.295 181.958C279.295 181.011 278.528 180.244 277.581 180.244C276.635 180.244 275.868 181.011 275.868 181.958C275.868 182.904 276.635 183.672 277.581 183.672Z" fill="#182A7C"/>
<path opacity="0.2" d="M163.809 138.359L158.925 148.202H153.527L157.136 141.991C159.127 140.835 161.369 139.604 163.809 138.359Z" fill="white"/>
<path opacity="0.2" d="M177.208 132.452L172.344 148.192H165.166L171.01 134.938C173.005 134.073 175.079 133.241 177.208 132.452Z" fill="white"/>
<path opacity="0.2" d="M227.774 128.05L217.178 146.841L216.703 146.874C215.382 146.96 214.157 147.016 213.117 147.036L222.65 127.743L223.931 127.812C225.133 127.878 226.427 127.958 227.774 128.05Z" fill="white"/>
<path opacity="0.2" d="M147.596 148.136L141.547 189.803L192.07 188.697L200.365 148.318L147.596 148.136Z" stroke="white" stroke-miterlimit="10"/>
<path opacity="0.5" d="M241.464 191.831C240.735 192.161 239.014 193.033 238.767 194.403H125.965L123.654 194.383C124.145 193.559 124.586 192.705 124.975 191.828L241.464 191.831Z" fill="#18218A"/>
<path d="M143.941 221.941C144.71 221.225 145.433 220.38 145.658 219.353C145.883 218.326 145.443 217.091 144.459 216.711C143.36 216.288 142.181 217.041 141.29 217.824C140.398 218.606 139.374 219.475 138.209 219.31C138.809 218.765 139.258 218.075 139.512 217.305C139.766 216.535 139.817 215.713 139.658 214.918C139.607 214.59 139.468 214.282 139.256 214.027C138.645 213.366 137.535 213.653 136.805 214.169C134.494 215.82 133.834 218.966 133.817 221.813C133.583 220.786 133.781 219.716 133.774 218.663C133.768 217.609 133.48 216.444 132.592 215.876C132.039 215.578 131.417 215.433 130.789 215.453C129.743 215.413 128.577 215.519 127.864 216.285C126.976 217.236 127.203 218.831 127.979 219.878C128.755 220.924 129.927 221.581 131.007 222.305C131.874 222.821 132.613 223.527 133.17 224.368C133.236 224.486 133.29 224.61 133.332 224.738H139.889C141.36 223.993 142.723 223.052 143.941 221.941Z" fill="#5BC49D"/>
<path d="M281.002 227.495C281.607 227.002 282.048 226.336 282.267 225.587C282.432 224.827 282.108 223.919 281.382 223.642C280.57 223.332 279.701 223.893 279.044 224.464C278.387 225.035 277.631 225.683 276.769 225.56C277.212 225.159 277.543 224.65 277.731 224.082C277.918 223.514 277.956 222.908 277.839 222.321C277.802 222.078 277.699 221.85 277.542 221.661C277.089 221.179 276.274 221.387 275.732 221.766C274.015 222.975 273.536 225.306 273.527 227.406C273.355 226.65 273.5 225.861 273.494 225.095C273.487 224.329 273.276 223.444 272.622 223.041C272.216 222.823 271.761 222.715 271.301 222.727C270.528 222.698 269.67 222.777 269.142 223.342C268.481 224.042 268.656 225.22 269.227 225.983C269.799 226.746 270.664 227.238 271.463 227.773C272.103 228.153 272.65 228.674 273.061 229.295C273.109 229.381 273.149 229.472 273.18 229.566H278.017C279.101 229.013 280.105 228.317 281.002 227.495Z" fill="#5BC49D"/>
<path d="M302.465 237.999C303.07 237.505 303.511 236.84 303.73 236.09C303.895 235.331 303.571 234.423 302.845 234.145C302.032 233.835 301.164 234.396 300.507 234.968C299.85 235.539 299.094 236.186 298.232 236.064C298.675 235.662 299.006 235.153 299.194 234.585C299.381 234.018 299.418 233.411 299.302 232.825C299.264 232.582 299.162 232.353 299.004 232.164C298.552 231.682 297.736 231.89 297.195 232.27C295.478 233.478 294.999 235.81 294.989 237.91C294.818 237.154 294.963 236.364 294.956 235.598C294.95 234.832 294.738 233.947 294.085 233.544C293.679 233.327 293.224 233.218 292.764 233.231C291.991 233.201 291.133 233.28 290.604 233.845C289.944 234.545 290.119 235.724 290.69 236.487C291.261 237.249 292.126 237.741 292.926 238.276C293.566 238.657 294.112 239.177 294.524 239.798C294.572 239.885 294.612 239.975 294.643 240.069H299.48C300.564 239.517 301.568 238.82 302.465 237.999Z" fill="#5BC49D"/>
<path d="M240.411 215.925C240.411 215.925 239.259 216.553 238.734 213C238.404 210.688 237.443 205.924 236.812 202.83L236.733 202.437C236.913 202.38 237.091 202.314 237.264 202.239C237.264 202.239 233.593 188.04 234.431 184.897C235.27 181.753 234.431 176.12 234.431 176.12L232.229 168.704C232.229 168.704 226.774 166.822 224.677 166.3C222.581 165.778 216.706 162.12 216.706 162.12C216.807 162.237 216.902 162.359 216.99 162.486L216.756 162.344C216.327 161.944 215.94 161.501 215.6 161.024C216.772 159.777 217.531 158.2 217.773 156.506C218.556 155.02 218.926 153.351 218.844 151.673C218.761 149.994 218.23 148.369 217.304 146.967C217.661 146.521 217.933 146.013 218.106 145.468C218.176 145.219 218.206 144.96 218.196 144.702C218.234 144.288 218.144 143.872 217.939 143.51C217.733 143.148 217.422 142.858 217.046 142.678C216.796 142.574 216.527 142.521 216.256 142.524C215.984 142.527 215.716 142.585 215.468 142.694C215.003 142.906 214.636 143.302 214.128 143.408C213.279 143.583 212.552 142.902 211.885 142.397C210.849 141.625 209.612 141.166 208.323 141.076C207.763 141.014 207.196 141.088 206.672 141.294C206.174 141.576 205.714 141.921 205.305 142.321C203.792 143.54 201.673 143.88 199.774 144.543C199.411 144.669 199.008 144.874 198.942 145.204C198.928 145.269 198.928 145.337 198.942 145.402C198.926 145.486 198.933 145.572 198.962 145.653C195.422 146.247 191.958 148.935 191.958 148.935L191.377 149.473C191.187 149.371 190.971 149.325 190.756 149.344C190.541 149.362 190.335 149.442 190.165 149.576L188.996 150.494C188.785 150.659 188.641 150.896 188.593 151.16C188.544 151.424 188.594 151.697 188.732 151.927L180.183 159.851L179.998 160.023V159.993C179.998 159.993 173.395 165.009 173.395 168.559C173.395 171.124 175.376 172.706 176.455 173.389C175.487 174.301 174.755 175.434 174.322 176.691V176.724V176.771V176.807V176.847V176.88V176.916V176.949V176.982V177.012V177.041V177.068V177.097V177.121V177.157V177.19V177.21V177.23V177.375V177.414V177.494V177.55V177.606L174.296 177.751V177.811L174.279 177.91V177.949V178.045V178.115L174.256 178.247L174.227 178.412V178.445L174.203 178.583V178.649L174.177 178.801V178.841L174.147 179.013V179.089L174.071 179.521L174.032 179.756V179.795L173.989 180.036V180.069L173.946 180.314V180.333L173.9 180.591V180.647L173.853 180.901V180.957L173.811 181.208V181.238L173.761 181.522V181.575L173.649 182.209L173.593 182.539V182.589L173.536 182.919V182.942L173.414 183.602V183.658L173.355 183.989V184.035L173.226 184.732V184.761L173.16 185.115V185.144L173.028 185.864V185.91L172.962 186.267V186.293L172.823 187.03V187.069L172.754 187.433V187.459L172.612 188.205V188.235L172.543 188.598V188.628L171.938 189.374V189.407L171.866 189.767V189.787L171.717 190.52V190.54L171.644 190.896V190.916L171.499 191.616V191.646L171.43 191.976V192.006L171.288 192.666V192.689L171.218 193.02V193.053L171.08 193.677V193.693L171.014 193.987V194.017C170.968 194.215 170.922 194.406 170.878 194.591L170.812 194.862V194.885C170.768 195.066 170.725 195.238 170.684 195.404L170.621 195.641V195.668L170.561 195.896C170.297 196.886 170.066 197.547 169.901 197.702C169.734 197.877 169.603 198.083 169.515 198.309L169.488 198.375L169.462 198.448L169.439 198.521L169.33 198.62L169.307 198.696L169.287 198.765L169.267 198.844V198.917L169.251 198.996V199.069C169.251 199.122 169.242 199.174 169.224 199.227V199.293V199.382V199.452V199.541V199.61V199.699V199.769V199.858V199.924C169.224 200.033 169.224 200.139 169.224 200.254C169.224 200.274 169.224 200.294 169.224 200.317C169.224 200.34 169.224 200.373 169.224 200.403C169.224 200.432 169.224 200.446 169.224 200.465C169.224 200.485 169.224 200.522 169.224 200.548C169.224 200.574 169.224 200.588 169.224 200.611C169.224 200.634 169.224 200.664 169.224 200.69V200.749C169.224 200.776 169.224 200.802 169.224 200.829V200.882C169.224 200.93 169.224 200.977 169.224 201.024V201.545V201.618V201.826L170.215 202.126C170.215 202.126 170.713 202.4 171.483 202.757C171.374 206.089 171.067 210.599 170.231 213.36C168.369 213.455 163.769 213.65 162.937 213.317C161.887 212.897 155.174 211.854 157.274 216.658C158.153 218.672 160.064 220.191 161.986 221.281C161.748 221.359 161.506 221.422 161.26 221.469C159.549 221.799 159.074 222.371 159.14 222.958C159.018 223.949 160.702 225.055 160.84 225.125C161.052 225.23 168.181 226.379 169.861 225.854C171.542 225.329 178.357 224.078 178.357 224.078C178.357 224.078 178.357 224.002 178.357 223.87C178.357 223.87 178.265 221.816 178.007 219.868C178.78 219.756 179.622 219.653 180.441 219.59C180.546 220.084 180.763 220.548 181.074 220.945C181.385 221.343 181.783 221.664 182.237 221.885C186.748 224.197 188.217 221.05 188.217 221.05C188.217 221.05 194.316 222.222 197.723 221.38C198.08 221.71 198.384 221.945 198.598 222.103C199.705 222.899 202.683 223.444 206.015 223.483C206.901 223.571 207.796 223.546 208.676 223.408C210.146 223.31 211.605 223.082 213.035 222.724C217.046 221.684 217.928 217.953 218.12 216.259C218.278 216.213 218.39 216.047 218.45 215.737C218.529 215.568 218.576 215.385 218.588 215.199C218.676 214.432 218.82 213.673 219.018 212.927L223.971 213.204C226.183 217.22 228.138 220.413 228.138 220.413L231.493 219.993C230 218.799 228.693 217.39 227.613 215.813C225.935 213.307 225.935 201.284 225.935 201.284L226.124 193.964V194.04V193.687C226.434 195.856 228.894 202.149 229.171 202.242C229.373 202.308 229.571 202.367 229.766 202.424L229.944 202.892C231.344 206.604 234.897 216.1 235.148 217.599C235.478 219.481 248.574 220.211 251.509 219.27C254.445 218.329 240.411 215.925 240.411 215.925ZM193.632 174.347L188.831 181.558C187.108 178.587 185.311 175.853 183.687 174.043C187.946 174.185 192.856 174.337 193.632 174.347ZM192.903 155.856C193.089 155.944 193.296 155.978 193.5 155.956C193.705 155.933 193.899 155.854 194.062 155.727L194.471 155.397C194.68 155.235 194.823 155.002 194.875 154.743C194.927 154.483 194.883 154.214 194.752 153.984L194.996 153.743C196.687 153.457 198.355 153.052 199.989 152.531C200.051 154.022 200.47 155.476 201.21 156.771C201.356 157.599 201.628 158.401 202.016 159.148C201.263 159.085 200.444 159.042 199.662 159.049C198.978 159.035 198.294 159.078 197.618 159.178C195.102 159.597 194.785 164.193 194.785 164.193C194.785 164.193 189.729 165.97 186.692 166.033C186.307 166.034 185.924 165.978 185.556 165.864L185.249 165.844L185.661 164.715C185.661 164.715 185.483 164.771 185.189 164.831C185.284 164.688 185.383 164.542 185.486 164.395C187.408 161.638 190.736 158.085 192.903 155.863V155.856ZM182.515 211.643C182.128 212.304 181.781 212.988 181.474 213.69C180.282 213.921 178.658 214.05 177.796 213.313C177.407 212.995 176.919 212.823 176.416 212.828L176.436 212.788C177.03 211.649 177.535 209.097 177.931 206.455C179.853 206.455 181.679 204.847 181.679 204.847L184.099 205.676L184.189 205.844L184.248 205.953L184.344 206.132L184.403 206.244L184.499 206.419L184.562 206.531L184.657 206.703L184.72 206.815L184.813 206.984L184.875 207.096L184.971 207.264L185.034 207.373L185.13 207.538L185.189 207.644L185.285 207.809L185.344 207.911L185.437 208.073L185.496 208.176L185.592 208.337L185.648 208.43L185.744 208.588L185.8 208.681L185.896 208.839L185.945 208.922L186.044 209.084L186.081 209.143C186.252 209.424 186.411 209.691 186.573 209.942L186.596 209.978L186.688 210.124L186.728 210.186L186.81 210.319L186.857 210.388L186.933 210.507L186.979 210.583L187.048 210.692L187.098 210.768L187.164 210.87L187.21 210.943L187.269 211.035L187.316 211.108L187.372 211.194L187.418 211.266L187.471 211.345L187.517 211.415C185.864 211.687 184.185 211.764 182.515 211.643Z" fill="url(#paint0_linear)"/>
<path d="M250.347 218.676C247.484 219.597 234.702 218.881 234.395 217.025C234.151 215.549 230.687 206.261 229.32 202.628L228.772 201.175L235.419 199.742C235.419 199.742 235.663 200.908 236 202.569C236.614 205.6 237.542 210.279 237.872 212.524C238.384 216.001 239.523 215.387 239.523 215.387C239.523 215.387 253.2 217.755 250.347 218.676Z" fill="#FFBDC6"/>
<path d="M214.236 158.336C214.236 158.336 213.725 161.403 218.123 164.279C222.521 167.155 218.737 177.471 218.737 177.471L215.485 177.652C213.419 177.768 211.389 177.079 209.821 175.729C208.254 174.379 207.27 172.474 207.078 170.414C207.078 170.414 208.917 167.443 205.542 159.779L214.236 158.336Z" fill="#FFBDC6"/>
<path d="M195.23 154.562C195.23 154.562 188.901 160.733 185.958 164.986C185.61 165.479 185.291 165.993 185.004 166.525C182.858 170.616 177.865 163.966 179.592 161.667L180.784 160.555L192.262 149.856C192.262 149.856 200.137 143.721 204.123 148.119C208.108 152.518 195.23 154.562 195.23 154.562Z" fill="#FFBDC6"/>
<path d="M209.29 162.179C214.373 162.179 218.493 158.059 218.493 152.977C218.493 147.894 214.373 143.774 209.29 143.774C204.208 143.774 200.088 147.894 200.088 152.977C200.088 158.059 204.208 162.179 209.29 162.179Z" fill="#A66477"/>
<path d="M171.816 212.845C171.816 212.845 164.965 213.254 163.941 212.845C162.917 212.435 156.376 211.415 158.433 216.12C160.49 220.825 168.25 222.767 168.25 222.767L173.863 221.334L171.816 212.845Z" fill="#7679B4"/>
<path opacity="0.05" d="M171.816 212.845C171.816 212.845 164.965 213.254 163.941 212.845C162.917 212.435 156.376 211.415 158.433 216.12C160.49 220.825 168.25 222.767 168.25 222.767L173.863 221.334L171.816 212.845Z" fill="#30475E"/>
<path d="M196.254 192.703L210.007 198.289L217.829 214.905C217.829 214.905 217.931 220.733 212.82 222.064C207.709 223.394 200.55 222.78 198.707 221.449C196.865 220.119 189.3 212.247 189.3 212.247L196.254 192.703Z" fill="#7679B4"/>
<path opacity="0.05" d="M195.32 192.703L207.223 197.163L213.995 210.46C213.995 210.46 214.085 215.126 209.66 216.189C205.235 217.253 199.038 216.761 197.443 215.697C195.848 214.634 189.3 208.331 189.3 208.331L195.32 192.703Z" fill="#30475E"/>
<path d="M183.472 212.844C183.472 212.844 179.893 214.073 178.463 212.844C177.033 211.616 174.474 213.152 174.474 213.152L175.604 219.798C175.604 219.798 180.715 218.672 183.479 218.979L183.472 212.844Z" fill="#FFBDC6"/>
<path opacity="0.05" d="M183.472 212.844C183.472 212.844 179.893 214.073 178.463 212.844C177.033 211.616 174.474 213.152 174.474 213.152L175.604 219.798C175.604 219.798 180.715 218.672 183.479 218.979L183.472 212.844Z" fill="#30475E"/>
<path d="M185.509 205.689L182.244 204.563C182.244 204.563 178.664 207.733 176.3 205.075C173.936 202.417 178.447 191.372 178.447 191.372L183.251 183.599L186.728 194.542L189.898 199.858L185.509 205.689Z" fill="#565388"/>
<path opacity="0.05" d="M185.509 205.689L182.244 204.563C182.244 204.563 178.664 207.733 176.3 205.075C173.936 202.417 178.447 191.372 178.447 191.372L183.251 183.599L186.728 194.542L189.898 199.858L185.509 205.689Z" fill="#30475E"/>
<path d="M216.703 205.075L224.066 206.095L225.499 212.844L216.399 212.333L216.703 205.075Z" fill="#565388"/>
<path opacity="0.05" d="M216.703 205.075L224.066 206.095L225.499 212.844L216.399 212.333L216.703 205.075Z" fill="#30475E"/>
<path opacity="0.1" d="M206.378 168.06C206.378 168.06 209.445 179.818 219.255 171.332L221.914 205.075C221.914 205.075 218.641 210.289 218.129 214.981C217.618 219.673 208.722 200.452 203.406 200.36C198.09 200.267 192.823 192.845 192.823 192.845L198.806 180.522L206.378 168.06Z" fill="#30475E"/>
<path d="M206.48 167.753C206.48 167.753 209.548 179.511 219.358 171.025L222.016 204.768C222.016 204.768 218.744 209.982 218.232 214.674C217.72 219.366 208.825 200.145 203.508 200.053C198.192 199.96 192.926 192.537 192.926 192.537L198.909 180.215L206.48 167.753Z" fill="#F2F1F2"/>
<path opacity="0.1" d="M204.842 160.185C204.842 160.185 200.55 159.468 198.093 159.878C195.637 160.287 195.333 164.784 195.333 164.784C195.333 164.784 188.379 167.238 186.028 166.435C186.028 166.435 174.471 165.617 174.471 169.094C174.471 172.57 178.156 174.185 178.156 174.185C178.156 174.185 194.2 174.727 194.312 174.697C197.994 173.673 194.21 174.697 194.21 174.697L187.563 184.718L193.698 193.204L200.243 188.4C200.243 188.4 201.062 183.9 203.215 181.651C204.747 180.043 206.751 172.805 207.771 168.8C207.986 167.956 208.031 167.078 207.903 166.217C207.775 165.356 207.478 164.529 207.028 163.784L204.842 160.185Z" fill="#30475E"/>
<path opacity="0.1" d="M185.958 164.986C185.61 165.479 185.291 165.993 185.004 166.525C182.858 170.616 177.865 163.966 179.592 161.667L180.784 160.555C180.348 165.831 184.644 165.27 185.958 164.986Z" fill="#30475E"/>
<path opacity="0.1" d="M194.21 174.297H194.094C194.094 174.297 197.892 173.274 194.21 174.297Z" fill="#30475E"/>
<path d="M204.535 160.185C204.535 160.185 200.243 159.468 197.786 159.878C195.329 160.287 195.026 164.784 195.026 164.784C195.026 164.784 188.072 167.238 185.721 166.435L186.13 165.309C186.13 165.309 179.896 167.251 180.609 160.697C180.609 160.697 174.167 165.603 174.167 169.08C174.167 172.557 177.849 174.185 177.849 174.185C177.849 174.185 193.893 174.727 194.005 174.697C197.687 173.673 193.903 174.697 193.903 174.697L187.256 184.718L193.391 193.204L199.936 188.4C199.936 188.4 200.755 183.9 202.907 181.651C204.44 180.043 206.444 172.805 207.464 168.8C207.679 167.956 207.724 167.078 207.596 166.217C207.468 165.356 207.171 164.529 206.721 163.784L204.535 160.185Z" fill="#565388"/>
<path opacity="0.1" d="M225.602 193.419V193.98C225.558 193.796 225.558 193.604 225.602 193.419Z" fill="#30475E"/>
<path opacity="0.1" d="M236 202.582C233.826 203.251 231.505 203.272 229.32 202.641L228.772 201.189L235.419 199.756C235.419 199.756 235.66 200.931 236 202.582Z" fill="#30475E"/>
<path opacity="0.1" d="M216.092 162.74C216.092 162.74 221.818 166.32 223.865 166.832C225.912 167.343 231.228 169.183 231.228 169.183L233.375 176.447C233.375 176.447 234.194 181.968 233.375 185.032C232.556 188.096 224.889 193.928 225.298 193.006L225.093 201.083C225.093 201.083 225.093 212.841 226.744 215.281C228.395 217.721 223.624 212.878 223.624 212.878C223.624 212.878 217.846 204.339 217.132 198.92C216.419 193.502 217.538 172.66 217.538 172.66L216.515 171.227C216.515 171.227 218.648 165.706 216.092 162.74Z" fill="#30475E"/>
<path d="M216.399 162.74C216.399 162.74 222.125 166.32 224.172 166.832C226.219 167.343 231.535 169.183 231.535 169.183L233.682 176.447C233.682 176.447 234.501 181.968 233.682 185.032C232.863 188.096 236.442 202.007 236.442 202.007C236.442 202.007 233.14 203.533 228.567 202.007C228.26 201.905 225.192 193.931 225.595 193.01L225.391 201.086C225.391 201.086 225.391 212.844 227.042 215.285C228.094 216.827 229.369 218.206 230.826 219.376L227.553 219.785C227.553 219.785 218.136 204.358 217.42 198.95C216.703 193.541 217.829 172.669 217.829 172.669L216.805 171.236C216.805 171.236 218.955 165.706 216.399 162.74Z" fill="#565388"/>
<path d="M188.481 211.828C188.481 211.828 181.63 201.922 181.937 197.299C181.937 197.299 181.118 203.639 180.2 204.048C179.282 204.458 170.076 201.591 170.076 201.591C170.076 201.591 169.667 198.62 170.69 197.603C171.714 196.586 174.884 177.662 174.884 177.662C174.884 177.662 176.01 172.551 180.916 172.244C185.823 171.937 196.868 196.886 196.868 196.886C196.868 196.886 198.503 211.828 188.481 211.828Z" fill="#7679B4"/>
<path d="M172.328 198.326C172.328 198.326 172.533 212.64 169.977 214.994C167.421 217.348 177.443 218.573 177.443 218.573C177.443 218.573 175.706 215.096 177.136 212.336C178.565 209.576 179.487 198.326 179.487 198.326H172.328Z" fill="#FFBDC6"/>
<path opacity="0.05" d="M172.837 214.799C172.837 214.799 171.813 212.244 169.052 214.287C169.052 214.287 166.599 220.013 162.303 220.832C158.007 221.651 161.689 224.104 161.894 224.207C162.099 224.309 169.052 225.435 170.687 224.923C172.321 224.411 178.968 223.186 178.968 223.186C178.968 223.186 178.661 216.437 177.647 215.922C176.634 215.407 177.132 218.983 172.837 214.799Z" fill="#30475E"/>
<path d="M172.837 214.994C172.837 214.994 171.813 212.438 169.052 214.482C169.052 214.482 166.599 220.208 162.303 221.027C158.007 221.846 161.689 224.299 161.894 224.401C162.099 224.504 169.052 225.63 170.687 225.118C172.321 224.606 178.972 223.384 178.972 223.384C178.972 223.384 178.664 216.635 177.651 216.12C176.637 215.605 177.132 219.184 172.837 214.994Z" fill="#7679B4"/>
<path d="M192.09 150.741C192.953 152.083 193.884 153.38 194.877 154.628C194.972 154.738 195.043 154.867 195.087 155.006C195.13 155.145 195.145 155.292 195.131 155.437C195.116 155.582 195.073 155.722 195.002 155.85C194.932 155.978 194.837 156.09 194.722 156.18L194.322 156.493C194.208 156.583 194.077 156.648 193.937 156.686C193.797 156.723 193.651 156.733 193.507 156.713C193.364 156.693 193.226 156.644 193.101 156.569C192.977 156.495 192.869 156.396 192.784 156.279C191.889 155.038 190.769 153.978 189.482 153.152C189.335 153.06 189.212 152.935 189.124 152.786C189.035 152.637 188.984 152.469 188.975 152.296C188.965 152.123 188.997 151.95 189.068 151.792C189.139 151.634 189.247 151.496 189.383 151.388L190.522 150.49C190.639 150.398 190.774 150.331 190.919 150.293C191.063 150.256 191.214 150.248 191.361 150.272C191.508 150.295 191.649 150.349 191.775 150.43C191.9 150.511 192.008 150.617 192.09 150.741Z" fill="#565388"/>
<path opacity="0.1" d="M215.422 161.968C214.101 160.109 214.352 158.636 214.352 158.636L205.651 160.082C206.256 161.431 206.753 162.826 207.137 164.253C208.594 164.679 210.141 164.69 211.604 164.287C213.067 163.883 214.389 163.08 215.422 161.968Z" fill="#30475E"/>
<path d="M209.343 164.273C213.86 164.273 217.522 160.611 217.522 156.094C217.522 151.577 213.86 147.915 209.343 147.915C204.826 147.915 201.164 151.577 201.164 156.094C201.164 160.611 204.826 164.273 209.343 164.273Z" fill="#FFBDC6"/>
<path opacity="0.1" d="M205.744 151.831C206.517 151.702 207.203 151.25 207.986 151.21C208.976 151.161 209.871 151.794 210.568 152.448C211.265 153.102 211.942 153.848 212.899 154.132C213.511 154.276 214.142 154.318 214.768 154.258C215.116 154.275 215.461 154.188 215.759 154.007C215.908 153.868 216.022 153.694 216.089 153.502C216.356 152.887 216.491 152.222 216.486 151.552C216.481 150.881 216.336 150.22 216.059 149.609C215.982 149.482 215.949 149.333 215.967 149.186C215.997 149.098 216.045 149.018 216.109 148.952C216.769 148.172 217.466 147.393 217.733 146.449C218.001 145.504 217.674 144.342 216.7 143.923C216.457 143.818 216.195 143.764 215.93 143.764C215.666 143.764 215.404 143.818 215.161 143.923C214.705 144.131 214.352 144.517 213.84 144.619C213.011 144.791 212.302 144.124 211.654 143.629C210.646 142.873 209.441 142.424 208.184 142.334C207.634 142.271 207.077 142.345 206.563 142.549C206.082 142.822 205.638 143.154 205.242 143.54C203.766 144.732 201.699 145.065 199.85 145.716C199.497 145.841 199.104 146.026 199.038 146.376C198.971 146.726 199.368 147.079 199.764 147.231C200.16 147.383 200.616 147.482 200.88 147.789C201.21 148.185 201.105 148.747 201.164 149.245C201.286 150.236 202.155 150.774 203.115 151.061C203.911 151.316 204.955 151.963 205.744 151.831Z" fill="#30475E"/>
<path d="M205.744 151.626C206.516 151.497 207.203 151.045 207.986 151.005C208.976 150.956 209.871 151.59 210.568 152.244C211.265 152.897 211.942 153.644 212.899 153.928C213.511 154.071 214.142 154.113 214.768 154.053C215.116 154.071 215.461 153.983 215.759 153.802C215.908 153.663 216.022 153.49 216.089 153.297C216.356 152.682 216.491 152.018 216.486 151.347C216.481 150.677 216.335 150.015 216.059 149.404C215.982 149.277 215.949 149.128 215.967 148.981C215.997 148.894 216.045 148.814 216.109 148.747C216.769 147.967 217.466 147.188 217.733 146.244C218.001 145.299 217.674 144.137 216.7 143.718C216.457 143.613 216.195 143.559 215.93 143.559C215.666 143.559 215.404 143.613 215.161 143.718C214.705 143.926 214.352 144.312 213.84 144.415C213.011 144.586 212.301 143.919 211.654 143.424C210.656 142.686 209.469 142.246 208.23 142.156C207.68 142.093 207.123 142.167 206.609 142.371C206.128 142.643 205.684 142.976 205.288 143.361C203.812 144.553 201.745 144.887 199.896 145.537C199.543 145.663 199.15 145.848 199.084 146.198C199.018 146.548 199.414 146.901 199.81 147.053C200.206 147.205 200.662 147.304 200.926 147.611C201.256 148.007 201.151 148.568 201.21 149.067C201.332 150.058 202.201 150.596 203.162 150.883C203.911 151.111 204.955 151.758 205.744 151.626Z" fill="#A66477"/>
<path opacity="0.05" d="M199.143 190.972C199.143 190.972 204.984 191.963 206.444 195.116C207.903 198.27 216.68 206.802 216.68 206.802" fill="#30475E"/>
<g opacity="0.05">
<path opacity="0.05" d="M180.405 203.335C179.483 203.744 170.281 200.882 170.281 200.882C170.168 199.992 170.178 199.091 170.31 198.204C169.782 199.478 170.076 201.598 170.076 201.598C170.076 201.598 179.279 204.461 180.2 204.051C180.504 203.916 180.797 203.13 181.055 202.136C180.85 202.774 180.632 203.243 180.405 203.335Z" fill="#30475E"/>
<path opacity="0.05" d="M175.075 177.035C175 177.242 174.936 177.454 174.884 177.669C174.884 177.669 172.665 190.92 171.341 195.83C172.566 191.844 174.877 178.214 175.075 177.035Z" fill="#30475E"/>
<path opacity="0.05" d="M188.686 211.108C188.686 211.108 181.834 201.202 182.141 196.579C182.141 196.579 182.069 197.154 181.94 197.966C182.25 202.8 188.481 211.828 188.481 211.828C193.246 211.828 195.376 208.453 196.297 204.91C195.28 208.172 193.13 211.108 188.686 211.108Z" fill="#30475E"/>
</g>
<path d="M171.037 201.892C171.037 201.892 177.284 205.333 179.536 203.695C181.788 202.057 180.355 199.501 180.355 199.501L178.615 196.639H172.787L170.845 200.013L171.037 201.892Z" fill="#7679B4"/>
<path d="M213.639 215.403C213.639 215.403 214.048 207.225 203.617 207.327C193.186 207.429 203.208 207.327 203.208 207.327C203.208 207.327 199.117 206.099 194.005 208.978C188.894 211.857 183.063 211.227 183.063 211.227C183.063 211.227 178.357 218.999 182.756 221.248C187.154 223.497 188.584 220.413 188.584 220.413C188.584 220.413 197.581 222.149 199.629 219.798C201.09 221.247 202.945 222.233 204.963 222.636C206.98 223.039 209.072 222.84 210.977 222.064C210.977 222.064 216.092 219.798 213.639 215.403Z" fill="#7679B4"/>
</g>
<path d="M117.662 282.118C117.746 282.238 117.788 282.364 117.788 282.496C117.788 282.676 117.722 282.82 117.59 282.928C117.47 283.024 117.332 283.072 117.176 283.072C117.02 283.072 116.888 283.006 116.78 282.874L111.758 276.556L109.31 278.86V282.442C109.298 282.61 109.238 282.748 109.13 282.856C109.022 282.952 108.89 283 108.734 283C108.566 283 108.428 282.952 108.32 282.856C108.224 282.748 108.176 282.61 108.176 282.442V270.958C108.176 270.79 108.23 270.658 108.338 270.562C108.446 270.454 108.584 270.4 108.752 270.4C108.92 270.4 109.052 270.454 109.148 270.562C109.256 270.658 109.31 270.79 109.31 270.958V277.492L116.582 270.616C116.69 270.496 116.822 270.436 116.978 270.436C117.122 270.436 117.242 270.49 117.338 270.598C117.446 270.706 117.5 270.826 117.5 270.958C117.5 271.102 117.446 271.228 117.338 271.336L112.622 275.746L117.662 282.118ZM127.523 273.802C127.679 273.802 127.805 273.856 127.901 273.964C128.009 274.072 128.063 274.204 128.063 274.36V282.46C128.063 282.616 128.009 282.748 127.901 282.856C127.805 282.952 127.679 283 127.523 283C127.367 283 127.235 282.952 127.127 282.856C127.031 282.748 126.983 282.616 126.983 282.46V281.254C126.683 281.794 126.233 282.25 125.633 282.622C125.033 282.994 124.379 283.18 123.671 283.18C122.867 283.18 122.141 282.97 121.493 282.55C120.857 282.13 120.353 281.554 119.981 280.822C119.621 280.09 119.441 279.268 119.441 278.356C119.441 277.444 119.627 276.628 119.999 275.908C120.371 275.176 120.875 274.606 121.511 274.198C122.159 273.79 122.873 273.586 123.653 273.586C124.373 273.586 125.033 273.76 125.633 274.108C126.233 274.456 126.683 274.912 126.983 275.476V274.36C126.983 274.204 127.031 274.072 127.127 273.964C127.235 273.856 127.367 273.802 127.523 273.802ZM123.779 282.172C124.403 282.172 124.961 282.01 125.453 281.686C125.957 281.35 126.347 280.894 126.623 280.318C126.911 279.73 127.055 279.076 127.055 278.356C127.055 277.66 126.911 277.024 126.623 276.448C126.347 275.872 125.957 275.422 125.453 275.098C124.961 274.762 124.403 274.594 123.779 274.594C123.155 274.594 122.591 274.756 122.087 275.08C121.595 275.404 121.205 275.854 120.917 276.43C120.641 276.994 120.503 277.636 120.503 278.356C120.503 279.076 120.641 279.73 120.917 280.318C121.193 280.894 121.577 281.35 122.069 281.686C122.573 282.01 123.143 282.172 123.779 282.172ZM141.321 273.73C142.401 273.73 143.193 274.066 143.697 274.738C144.213 275.398 144.471 276.274 144.471 277.366V282.46C144.471 282.616 144.417 282.748 144.309 282.856C144.213 282.952 144.087 283 143.931 283C143.775 283 143.643 282.952 143.535 282.856C143.439 282.748 143.391 282.616 143.391 282.46V277.42C143.391 276.628 143.199 275.986 142.815 275.494C142.443 274.99 141.861 274.738 141.069 274.738C140.565 274.738 140.085 274.858 139.629 275.098C139.185 275.338 138.825 275.668 138.549 276.088C138.273 276.496 138.135 276.94 138.135 277.42V282.46C138.135 282.616 138.081 282.748 137.973 282.856C137.877 282.952 137.751 283 137.595 283C137.439 283 137.307 282.952 137.199 282.856C137.103 282.748 137.055 282.616 137.055 282.46V277.366C137.055 276.586 136.875 275.956 136.515 275.476C136.155 274.984 135.591 274.738 134.823 274.738C134.331 274.738 133.863 274.858 133.419 275.098C132.987 275.338 132.633 275.662 132.357 276.07C132.093 276.466 131.961 276.898 131.961 277.366V282.46C131.961 282.616 131.907 282.748 131.799 282.856C131.703 282.952 131.577 283 131.421 283C131.265 283 131.133 282.952 131.025 282.856C130.929 282.748 130.881 282.616 130.881 282.46V274.396C130.881 274.24 130.929 274.114 131.025 274.018C131.133 273.91 131.265 273.856 131.421 273.856C131.577 273.856 131.703 273.91 131.799 274.018C131.907 274.114 131.961 274.24 131.961 274.396V275.44C132.285 274.948 132.723 274.54 133.275 274.216C133.827 273.892 134.409 273.73 135.021 273.73C135.717 273.73 136.317 273.898 136.821 274.234C137.325 274.57 137.685 275.062 137.901 275.71C138.153 275.182 138.615 274.72 139.287 274.324C139.959 273.928 140.637 273.73 141.321 273.73ZM154.175 273.856C154.331 273.856 154.457 273.91 154.553 274.018C154.661 274.114 154.715 274.24 154.715 274.396V279.472C154.715 280.648 154.385 281.554 153.725 282.19C153.065 282.814 152.153 283.126 150.989 283.126C149.837 283.126 148.931 282.814 148.271 282.19C147.623 281.554 147.299 280.648 147.299 279.472V274.396C147.299 274.24 147.347 274.114 147.443 274.018C147.551 273.91 147.683 273.856 147.839 273.856C147.995 273.856 148.121 273.91 148.217 274.018C148.325 274.114 148.379 274.24 148.379 274.396V279.472C148.379 280.336 148.607 280.996 149.063 281.452C149.519 281.896 150.161 282.118 150.989 282.118C151.829 282.118 152.477 281.896 152.933 281.452C153.401 280.996 153.635 280.336 153.635 279.472V274.396C153.635 274.24 153.683 274.114 153.779 274.018C153.887 273.91 154.019 273.856 154.175 273.856ZM166.843 273.586C167.635 273.586 168.355 273.79 169.003 274.198C169.651 274.606 170.155 275.176 170.515 275.908C170.887 276.628 171.073 277.444 171.073 278.356C171.073 279.256 170.887 280.078 170.515 280.822C170.155 281.554 169.651 282.13 169.003 282.55C168.367 282.97 167.653 283.18 166.861 283.18C166.177 283.18 165.541 283.012 164.953 282.676C164.377 282.328 163.909 281.872 163.549 281.308V282.496C163.549 282.652 163.495 282.784 163.387 282.892C163.291 283 163.165 283.054 163.009 283.054C162.853 283.054 162.721 283 162.613 282.892C162.517 282.784 162.469 282.652 162.469 282.496V270.238C162.469 270.082 162.517 269.956 162.613 269.86C162.721 269.752 162.853 269.698 163.009 269.698C163.165 269.698 163.291 269.752 163.387 269.86C163.495 269.956 163.549 270.082 163.549 270.238V275.548C163.873 274.96 164.329 274.486 164.917 274.126C165.505 273.766 166.147 273.586 166.843 273.586ZM166.753 282.172C167.377 282.172 167.935 282.004 168.427 281.668C168.931 281.332 169.321 280.876 169.597 280.3C169.885 279.712 170.029 279.064 170.029 278.356C170.029 277.636 169.885 276.994 169.597 276.43C169.321 275.854 168.931 275.404 168.427 275.08C167.935 274.756 167.377 274.594 166.753 274.594C166.117 274.594 165.547 274.756 165.043 275.08C164.539 275.392 164.149 275.836 163.873 276.412C163.597 276.988 163.459 277.636 163.459 278.356C163.459 279.076 163.597 279.73 163.873 280.318C164.161 280.894 164.551 281.35 165.043 281.686C165.547 282.01 166.117 282.172 166.753 282.172ZM181.073 277.87C181.073 278.014 181.019 278.14 180.911 278.248C180.803 278.344 180.677 278.392 180.533 278.392H173.729C173.729 279.112 173.873 279.76 174.161 280.336C174.461 280.9 174.881 281.35 175.421 281.686C175.973 282.01 176.621 282.172 177.365 282.172C177.941 282.172 178.457 282.052 178.913 281.812C179.369 281.572 179.735 281.266 180.011 280.894C180.143 280.786 180.269 280.732 180.389 280.732C180.509 280.732 180.617 280.78 180.713 280.876C180.809 280.972 180.857 281.08 180.857 281.2C180.857 281.332 180.797 281.458 180.677 281.578C180.293 282.046 179.807 282.43 179.219 282.73C178.643 283.03 178.031 283.18 177.383 283.18C176.459 283.18 175.643 282.982 174.935 282.586C174.227 282.19 173.675 281.638 173.279 280.93C172.883 280.21 172.685 279.382 172.685 278.446C172.685 277.462 172.877 276.604 173.261 275.872C173.657 275.128 174.179 274.564 174.827 274.18C175.475 273.784 176.165 273.586 176.897 273.586C177.617 273.586 178.289 273.754 178.913 274.09C179.549 274.426 180.065 274.918 180.461 275.566C180.857 276.214 181.061 276.982 181.073 277.87ZM176.897 274.63C176.201 274.63 175.553 274.87 174.953 275.35C174.365 275.83 173.987 276.52 173.819 277.42H179.957V277.276C179.897 276.736 179.717 276.268 179.417 275.872C179.117 275.464 178.739 275.158 178.283 274.954C177.839 274.738 177.377 274.63 176.897 274.63ZM184.487 282.46C184.487 282.616 184.433 282.748 184.325 282.856C184.229 282.952 184.103 283 183.947 283C183.791 283 183.659 282.952 183.551 282.856C183.455 282.748 183.407 282.616 183.407 282.46V270.22C183.407 270.064 183.455 269.938 183.551 269.842C183.659 269.734 183.791 269.68 183.947 269.68C184.103 269.68 184.229 269.734 184.325 269.842C184.433 269.938 184.487 270.064 184.487 270.22V282.46ZM194.236 273.856C194.392 273.856 194.518 273.91 194.614 274.018C194.722 274.114 194.776 274.24 194.776 274.396V279.472C194.776 280.648 194.446 281.554 193.786 282.19C193.126 282.814 192.214 283.126 191.05 283.126C189.898 283.126 188.992 282.814 188.332 282.19C187.684 281.554 187.36 280.648 187.36 279.472V274.396C187.36 274.24 187.408 274.114 187.504 274.018C187.612 273.91 187.744 273.856 187.9 273.856C188.056 273.856 188.182 273.91 188.278 274.018C188.386 274.114 188.44 274.24 188.44 274.396V279.472C188.44 280.336 188.668 280.996 189.124 281.452C189.58 281.896 190.222 282.118 191.05 282.118C191.89 282.118 192.538 281.896 192.994 281.452C193.462 280.996 193.696 280.336 193.696 279.472V274.396C193.696 274.24 193.744 274.114 193.84 274.018C193.948 273.91 194.08 273.856 194.236 273.856ZM208.048 273.73C209.128 273.73 209.92 274.066 210.424 274.738C210.94 275.398 211.198 276.274 211.198 277.366V282.46C211.198 282.616 211.144 282.748 211.036 282.856C210.94 282.952 210.814 283 210.658 283C210.502 283 210.37 282.952 210.262 282.856C210.166 282.748 210.118 282.616 210.118 282.46V277.42C210.118 276.628 209.926 275.986 209.542 275.494C209.17 274.99 208.588 274.738 207.796 274.738C207.292 274.738 206.812 274.858 206.356 275.098C205.912 275.338 205.552 275.668 205.276 276.088C205 276.496 204.862 276.94 204.862 277.42V282.46C204.862 282.616 204.808 282.748 204.7 282.856C204.604 282.952 204.478 283 204.322 283C204.166 283 204.034 282.952 203.926 282.856C203.83 282.748 203.782 282.616 203.782 282.46V277.366C203.782 276.586 203.602 275.956 203.242 275.476C202.882 274.984 202.318 274.738 201.55 274.738C201.058 274.738 200.59 274.858 200.146 275.098C199.714 275.338 199.36 275.662 199.084 276.07C198.82 276.466 198.688 276.898 198.688 277.366V282.46C198.688 282.616 198.634 282.748 198.526 282.856C198.43 282.952 198.304 283 198.148 283C197.992 283 197.86 282.952 197.752 282.856C197.656 282.748 197.608 282.616 197.608 282.46V274.396C197.608 274.24 197.656 274.114 197.752 274.018C197.86 273.91 197.992 273.856 198.148 273.856C198.304 273.856 198.43 273.91 198.526 274.018C198.634 274.114 198.688 274.24 198.688 274.396V275.44C199.012 274.948 199.45 274.54 200.002 274.216C200.554 273.892 201.136 273.73 201.748 273.73C202.444 273.73 203.044 273.898 203.548 274.234C204.052 274.57 204.412 275.062 204.628 275.71C204.88 275.182 205.342 274.72 206.014 274.324C206.686 273.928 207.364 273.73 208.048 273.73ZM223.321 273.73C224.113 273.73 224.833 273.934 225.481 274.342C226.129 274.738 226.633 275.296 226.993 276.016C227.365 276.724 227.551 277.522 227.551 278.41C227.551 279.31 227.365 280.12 226.993 280.84C226.633 281.548 226.129 282.106 225.481 282.514C224.845 282.922 224.131 283.126 223.339 283.126C222.643 283.126 222.001 282.964 221.413 282.64C220.837 282.304 220.375 281.86 220.027 281.308V286.06C220.027 286.216 219.973 286.342 219.865 286.438C219.769 286.546 219.643 286.6 219.487 286.6C219.331 286.6 219.199 286.546 219.091 286.438C218.995 286.342 218.947 286.216 218.947 286.06V274.324C218.947 274.168 218.995 274.036 219.091 273.928C219.199 273.82 219.331 273.766 219.487 273.766C219.643 273.766 219.769 273.82 219.865 273.928C219.973 274.036 220.027 274.168 220.027 274.324V275.548C220.339 274.984 220.789 274.54 221.377 274.216C221.965 273.892 222.613 273.73 223.321 273.73ZM223.231 282.118C223.855 282.118 224.413 281.962 224.905 281.65C225.409 281.326 225.799 280.882 226.075 280.318C226.363 279.754 226.507 279.118 226.507 278.41C226.507 277.714 226.363 277.09 226.075 276.538C225.799 275.974 225.409 275.536 224.905 275.224C224.413 274.9 223.855 274.738 223.231 274.738C222.595 274.738 222.025 274.894 221.521 275.206C221.017 275.518 220.627 275.956 220.351 276.52C220.075 277.072 219.937 277.702 219.937 278.41C219.937 279.118 220.075 279.754 220.351 280.318C220.627 280.882 221.017 281.326 221.521 281.65C222.025 281.962 222.595 282.118 223.231 282.118ZM237.246 273.802C237.402 273.802 237.528 273.856 237.624 273.964C237.732 274.072 237.786 274.204 237.786 274.36V282.46C237.786 282.616 237.732 282.748 237.624 282.856C237.528 282.952 237.402 283 237.246 283C237.09 283 236.958 282.952 236.85 282.856C236.754 282.748 236.706 282.616 236.706 282.46V281.254C236.406 281.794 235.956 282.25 235.356 282.622C234.756 282.994 234.102 283.18 233.394 283.18C232.59 283.18 231.864 282.97 231.216 282.55C230.58 282.13 230.076 281.554 229.704 280.822C229.344 280.09 229.164 279.268 229.164 278.356C229.164 277.444 229.35 276.628 229.722 275.908C230.094 275.176 230.598 274.606 231.234 274.198C231.882 273.79 232.596 273.586 233.376 273.586C234.096 273.586 234.756 273.76 235.356 274.108C235.956 274.456 236.406 274.912 236.706 275.476V274.36C236.706 274.204 236.754 274.072 236.85 273.964C236.958 273.856 237.09 273.802 237.246 273.802ZM233.502 282.172C234.126 282.172 234.684 282.01 235.176 281.686C235.68 281.35 236.07 280.894 236.346 280.318C236.634 279.73 236.778 279.076 236.778 278.356C236.778 277.66 236.634 277.024 236.346 276.448C236.07 275.872 235.68 275.422 235.176 275.098C234.684 274.762 234.126 274.594 233.502 274.594C232.878 274.594 232.314 274.756 231.81 275.08C231.318 275.404 230.928 275.854 230.64 276.43C230.364 276.994 230.226 277.636 230.226 278.356C230.226 279.076 230.364 279.73 230.64 280.318C230.916 280.894 231.3 281.35 231.792 281.686C232.296 282.01 232.866 282.172 233.502 282.172ZM244.906 273.586C245.146 273.586 245.362 273.634 245.554 273.73C245.746 273.826 245.842 273.97 245.842 274.162C245.842 274.33 245.794 274.468 245.698 274.576C245.602 274.672 245.488 274.72 245.356 274.72C245.296 274.72 245.176 274.69 244.996 274.63C244.828 274.57 244.666 274.54 244.51 274.54C244.066 274.54 243.622 274.714 243.178 275.062C242.746 275.398 242.386 275.836 242.098 276.376C241.822 276.916 241.684 277.462 241.684 278.014V282.46C241.684 282.616 241.63 282.748 241.522 282.856C241.426 282.952 241.3 283 241.144 283C240.988 283 240.856 282.952 240.748 282.856C240.652 282.748 240.604 282.616 240.604 282.46V274.396C240.604 274.24 240.652 274.114 240.748 274.018C240.856 273.91 240.988 273.856 241.144 273.856C241.3 273.856 241.426 273.91 241.522 274.018C241.63 274.114 241.684 274.24 241.684 274.396V275.98C241.96 275.296 242.374 274.732 242.926 274.288C243.49 273.832 244.15 273.598 244.906 273.586ZM254.819 282.046C254.927 282.166 254.981 282.304 254.981 282.46C254.981 282.616 254.915 282.748 254.783 282.856C254.663 282.952 254.549 283 254.441 283C254.285 283 254.153 282.934 254.045 282.802L250.067 278.59L248.717 279.742V282.46C248.717 282.616 248.663 282.748 248.555 282.856C248.459 282.952 248.333 283 248.177 283C248.021 283 247.889 282.952 247.781 282.856C247.685 282.748 247.637 282.616 247.637 282.46V270.22C247.637 270.064 247.685 269.938 247.781 269.842C247.889 269.734 248.021 269.68 248.177 269.68C248.333 269.68 248.459 269.734 248.555 269.842C248.663 269.938 248.717 270.064 248.717 270.22V278.428L253.919 273.946C254.027 273.826 254.153 273.766 254.297 273.766C254.429 273.766 254.549 273.826 254.657 273.946C254.765 274.054 254.819 274.174 254.819 274.306C254.819 274.45 254.753 274.588 254.621 274.72L250.913 277.87L254.819 282.046ZM258.206 282.46C258.206 282.616 258.152 282.748 258.044 282.856C257.948 282.952 257.822 283 257.666 283C257.51 283 257.378 282.952 257.27 282.856C257.174 282.748 257.126 282.616 257.126 282.46V274.18C257.126 274.024 257.174 273.898 257.27 273.802C257.378 273.694 257.51 273.64 257.666 273.64C257.822 273.64 257.948 273.694 258.044 273.802C258.152 273.898 258.206 274.024 258.206 274.18V282.46ZM257.666 272.434C257.426 272.434 257.24 272.38 257.108 272.272C256.976 272.152 256.91 271.984 256.91 271.768V271.588C256.91 271.372 256.976 271.21 257.108 271.102C257.252 270.982 257.444 270.922 257.684 270.922C258.164 270.922 258.404 271.144 258.404 271.588V271.768C258.404 271.984 258.338 272.152 258.206 272.272C258.086 272.38 257.906 272.434 257.666 272.434ZM265.314 273.586C265.554 273.586 265.77 273.634 265.962 273.73C266.154 273.826 266.25 273.97 266.25 274.162C266.25 274.33 266.202 274.468 266.106 274.576C266.01 274.672 265.896 274.72 265.764 274.72C265.704 274.72 265.584 274.69 265.404 274.63C265.236 274.57 265.074 274.54 264.918 274.54C264.474 274.54 264.03 274.714 263.586 275.062C263.154 275.398 262.794 275.836 262.506 276.376C262.23 276.916 262.092 277.462 262.092 278.014V282.46C262.092 282.616 262.038 282.748 261.93 282.856C261.834 282.952 261.708 283 261.552 283C261.396 283 261.264 282.952 261.156 282.856C261.06 282.748 261.012 282.616 261.012 282.46V274.396C261.012 274.24 261.06 274.114 261.156 274.018C261.264 273.91 261.396 273.856 261.552 273.856C261.708 273.856 261.834 273.91 261.93 274.018C262.038 274.114 262.092 274.24 262.092 274.396V275.98C262.368 275.296 262.782 274.732 263.334 274.288C263.898 273.832 264.558 273.598 265.314 273.586Z" fill="#30475E"/>
<defs>
<linearGradient id="paint0_linear" x1="204.383" y1="225.986" x2="204.383" y2="141.07" gradientUnits="userSpaceOnUse">
<stop stop-color="#808080" stop-opacity="0.25"/>
<stop offset="0.54" stop-color="#808080" stop-opacity="0.12"/>
<stop offset="1" stop-color="#808080" stop-opacity="0.1"/>
</linearGradient>
<clipPath id="clip0">
<rect width="327" height="240.063" fill="white" transform="translate(23)"/>
</clipPath>
</defs>
</svg>
