<svg width="280" height="192" viewBox="0 0 280 192" fill="none" xmlns="http://www.w3.org/2000/svg">
<g clip-path="url(#clip0)">
<path d="M177.1 53.5078H142.369V45.9961C142.369 45.5195 142.18 45.0625 141.843 44.7255C141.506 44.3886 141.049 44.1993 140.572 44.1993H130.374V36.1977C130.374 35.8978 130.254 35.6101 130.042 35.3979C129.83 35.1858 129.542 35.0667 129.242 35.0667H116.105C115.805 35.0667 115.517 35.1858 115.305 35.3979C115.093 35.6101 114.974 35.8978 114.974 36.1977V44.202H102.984C102.507 44.202 102.05 44.3913 101.713 44.7283C101.376 45.0652 101.187 45.5222 101.187 45.9988V53.5105H68.0687C67.9722 53.5112 67.88 53.55 67.8121 53.6185C67.7442 53.6869 67.7061 53.7794 67.7061 53.8758V153.593C67.7061 153.69 67.7442 153.782 67.8121 153.851C67.88 153.919 67.9722 153.958 68.0687 153.959H90.079C90.1759 153.959 90.2688 153.92 90.3373 153.852C90.4058 153.783 90.4443 153.69 90.4443 153.593V140.177C90.445 140.081 90.4837 139.988 90.5521 139.92C90.6204 139.851 90.7129 139.813 90.8096 139.812H100.107C100.204 139.813 100.296 139.851 100.365 139.92C100.433 139.988 100.472 140.081 100.473 140.177V153.593C100.473 153.69 100.511 153.782 100.579 153.851C100.647 153.919 100.739 153.958 100.835 153.959H144.328C144.425 153.958 144.517 153.919 144.586 153.851C144.654 153.783 144.693 153.69 144.694 153.593V140.177C144.694 140.081 144.732 139.988 144.8 139.92C144.868 139.851 144.96 139.813 145.056 139.812H154.354C154.451 139.812 154.544 139.85 154.612 139.919C154.681 139.987 154.719 140.08 154.719 140.177V153.593C154.72 153.69 154.759 153.783 154.827 153.851C154.895 153.919 154.988 153.958 155.084 153.959H177.095C177.191 153.958 177.284 153.919 177.352 153.851C177.421 153.783 177.459 153.69 177.46 153.593V53.8731C177.459 53.7774 177.421 53.6857 177.354 53.6175C177.287 53.5493 177.196 53.5099 177.1 53.5078ZM86.5044 135.152C86.5044 135.248 86.4662 135.341 86.3982 135.409C86.3302 135.477 86.238 135.515 86.1418 135.515H72.547C72.4992 135.515 72.4517 135.506 72.4074 135.488C72.3631 135.47 72.3228 135.443 72.2889 135.41C72.2549 135.376 72.228 135.336 72.2096 135.292C72.1912 135.247 72.1817 135.2 72.1817 135.152V130.522C72.1817 130.474 72.1912 130.427 72.2095 130.383C72.2279 130.338 72.2548 130.298 72.2887 130.264C72.3226 130.23 72.3629 130.203 72.4072 130.185C72.4516 130.166 72.4991 130.157 72.547 130.157H86.1499C86.2463 130.158 86.3386 130.197 86.4065 130.265C86.4744 130.333 86.5125 130.426 86.5125 130.522L86.5044 135.152ZM86.5044 123.154C86.5048 123.202 86.4957 123.249 86.4776 123.294C86.4595 123.338 86.4329 123.378 86.3992 123.412C86.3655 123.446 86.3254 123.473 86.2812 123.491C86.237 123.51 86.1897 123.519 86.1418 123.519H72.547C72.499 123.52 72.4513 123.51 72.4068 123.492C72.3623 123.474 72.3219 123.447 72.2879 123.413C72.2539 123.379 72.227 123.339 72.2088 123.294C72.1906 123.25 72.1814 123.202 72.1817 123.154V118.513C72.1814 118.465 72.1906 118.418 72.2088 118.373C72.227 118.329 72.2539 118.288 72.2879 118.254C72.3219 118.22 72.3623 118.193 72.4068 118.175C72.4513 118.157 72.499 118.148 72.547 118.148H86.1499C86.1978 118.148 86.2451 118.157 86.2893 118.176C86.3335 118.194 86.3736 118.221 86.4073 118.255C86.441 118.289 86.4676 118.329 86.4857 118.374C86.5038 118.418 86.5129 118.465 86.5125 118.513L86.5044 123.154ZM86.5044 111.158C86.5044 111.255 86.4663 111.347 86.3984 111.416C86.3305 111.484 86.2382 111.523 86.1418 111.524H72.547C72.4991 111.524 72.4516 111.514 72.4072 111.496C72.3629 111.478 72.3226 111.451 72.2887 111.417C72.2548 111.383 72.2279 111.343 72.2095 111.298C72.1912 111.254 72.1817 111.206 72.1817 111.158V106.515C72.1817 106.467 72.1912 106.42 72.2095 106.375C72.2279 106.331 72.2548 106.291 72.2887 106.257C72.3226 106.223 72.3629 106.196 72.4072 106.178C72.4516 106.159 72.4991 106.15 72.547 106.15H86.1499C86.2463 106.15 86.3386 106.189 86.4065 106.258C86.4744 106.326 86.5125 106.419 86.5125 106.515L86.5044 111.158ZM86.5044 99.1602C86.5048 99.208 86.4957 99.2555 86.4776 99.2998C86.4595 99.3441 86.4329 99.3844 86.3992 99.4183C86.3655 99.4523 86.3254 99.4792 86.2812 99.4976C86.237 99.516 86.1897 99.5255 86.1418 99.5255H72.547C72.499 99.5259 72.4513 99.5166 72.4068 99.4984C72.3623 99.4802 72.3219 99.4533 72.2879 99.4193C72.2539 99.3853 72.227 99.3449 72.2088 99.3004C72.1906 99.2559 72.1814 99.2083 72.1817 99.1602V94.533C72.1814 94.4849 72.1906 94.4372 72.2088 94.3928C72.227 94.3483 72.2539 94.3079 72.2879 94.2739C72.3219 94.2399 72.3623 94.213 72.4068 94.1948C72.4513 94.1765 72.499 94.1673 72.547 94.1677H86.1499C86.1978 94.1677 86.2451 94.1771 86.2893 94.1955C86.3335 94.2139 86.3736 94.2409 86.4073 94.2748C86.441 94.3088 86.4676 94.3491 86.4857 94.3934C86.5038 94.4377 86.5129 94.4851 86.5125 94.533L86.5044 99.1602ZM86.5044 87.1646C86.5044 87.261 86.4663 87.3536 86.3984 87.422C86.3305 87.4904 86.2382 87.5292 86.1418 87.5299H72.547C72.4991 87.5299 72.4516 87.5205 72.4072 87.5021C72.3629 87.4838 72.3226 87.4569 72.2887 87.4229C72.2548 87.389 72.2279 87.3488 72.2095 87.3044C72.1912 87.2601 72.1817 87.2126 72.1817 87.1646V82.5212C72.1817 82.4733 72.1912 82.426 72.2096 82.3818C72.228 82.3376 72.2549 82.2975 72.2889 82.2638C72.3228 82.2301 72.3631 82.2035 72.4074 82.1854C72.4517 82.1674 72.4992 82.1582 72.547 82.1586H86.1499C86.2461 82.1586 86.3383 82.1968 86.4063 82.2648C86.4743 82.3328 86.5125 82.425 86.5125 82.5212L86.5044 87.1646ZM86.5044 75.1691C86.5044 75.2653 86.4662 75.3575 86.3982 75.4255C86.3302 75.4935 86.238 75.5317 86.1418 75.5317H72.547C72.4992 75.532 72.4517 75.5229 72.4074 75.5049C72.3631 75.4868 72.3228 75.4601 72.2889 75.4264C72.2549 75.3927 72.228 75.3526 72.2096 75.3085C72.1912 75.2643 72.1817 75.2169 72.1817 75.1691V70.5256C72.1817 70.4777 72.1912 70.4302 72.2095 70.3858C72.2279 70.3415 72.2548 70.3013 72.2887 70.2673C72.3226 70.2334 72.3629 70.2065 72.4072 70.1881C72.4516 70.1698 72.4991 70.1603 72.547 70.1603H86.1499C86.2463 70.161 86.3386 70.1999 86.4065 70.2683C86.4744 70.3367 86.5125 70.4292 86.5125 70.5256L86.5044 75.1691ZM86.5044 63.1708C86.5048 63.2187 86.4957 63.2661 86.4776 63.3104C86.4595 63.3547 86.4329 63.395 86.3992 63.429C86.3655 63.4629 86.3254 63.4899 86.2812 63.5083C86.237 63.5267 86.1897 63.5361 86.1418 63.5361H72.547C72.499 63.5365 72.4513 63.5273 72.4068 63.5091C72.3623 63.4908 72.3219 63.4639 72.2879 63.4299C72.2539 63.3959 72.227 63.3555 72.2088 63.311C72.1906 63.2666 72.1814 63.2189 72.1817 63.1708V58.5436C72.1814 58.4955 72.1906 58.4479 72.2088 58.4034C72.227 58.3589 72.2539 58.3185 72.2879 58.2845C72.3219 58.2505 72.3623 58.2236 72.4068 58.2054C72.4513 58.1872 72.499 58.178 72.547 58.1783H86.1499C86.1978 58.1783 86.2451 58.1878 86.2893 58.2062C86.3335 58.2246 86.3736 58.2515 86.4073 58.2855C86.441 58.3194 86.4676 58.3597 86.4857 58.404C86.5038 58.4483 86.5129 58.4958 86.5125 58.5436L86.5044 63.1708ZM118.735 135.15C118.735 135.197 118.726 135.245 118.707 135.289C118.689 135.333 118.662 135.373 118.628 135.407C118.594 135.441 118.554 135.467 118.509 135.485C118.465 135.503 118.418 135.513 118.37 135.512H104.775C104.679 135.512 104.586 135.474 104.518 135.406C104.449 135.338 104.411 135.246 104.41 135.15V130.522C104.411 130.426 104.449 130.333 104.518 130.265C104.586 130.196 104.678 130.158 104.775 130.157H118.37C118.418 130.157 118.465 130.166 118.51 130.185C118.554 130.203 118.594 130.23 118.628 130.264C118.662 130.298 118.689 130.338 118.707 130.383C118.726 130.427 118.735 130.474 118.735 130.522V135.15ZM118.735 123.151C118.736 123.199 118.726 123.247 118.708 123.292C118.69 123.336 118.663 123.376 118.629 123.41C118.595 123.444 118.555 123.471 118.51 123.49C118.466 123.508 118.418 123.517 118.37 123.517H104.775C104.678 123.517 104.585 123.478 104.517 123.41C104.448 123.341 104.41 123.248 104.41 123.151V118.513C104.41 118.416 104.448 118.323 104.517 118.255C104.585 118.186 104.678 118.148 104.775 118.148H118.37C118.418 118.148 118.466 118.157 118.51 118.175C118.555 118.193 118.595 118.22 118.629 118.254C118.663 118.288 118.69 118.329 118.708 118.373C118.726 118.418 118.736 118.465 118.735 118.513V123.151ZM118.735 111.156C118.735 111.204 118.726 111.251 118.707 111.296C118.689 111.34 118.662 111.38 118.628 111.414C118.594 111.448 118.554 111.475 118.51 111.493C118.465 111.512 118.418 111.521 118.37 111.521H104.775C104.678 111.52 104.586 111.482 104.518 111.413C104.449 111.345 104.411 111.252 104.41 111.156V106.515C104.411 106.418 104.449 106.326 104.518 106.257C104.586 106.189 104.678 106.15 104.775 106.15H118.37C118.418 106.15 118.465 106.159 118.51 106.178C118.554 106.196 118.594 106.223 118.628 106.257C118.662 106.291 118.689 106.331 118.707 106.375C118.726 106.42 118.735 106.467 118.735 106.515V111.156ZM118.735 99.1575C118.736 99.2056 118.726 99.2532 118.708 99.2977C118.69 99.3422 118.663 99.3826 118.629 99.4166C118.595 99.4506 118.555 99.4775 118.51 99.4957C118.466 99.5139 118.418 99.5231 118.37 99.5228H104.775C104.678 99.5228 104.585 99.4843 104.517 99.4158C104.448 99.3473 104.41 99.2544 104.41 99.1575V94.533C104.41 94.4361 104.448 94.3432 104.517 94.2747C104.585 94.2062 104.678 94.1677 104.775 94.1677H118.37C118.418 94.1673 118.466 94.1765 118.51 94.1948C118.555 94.213 118.595 94.2399 118.629 94.2739C118.663 94.3079 118.69 94.3483 118.708 94.3928C118.726 94.4372 118.736 94.4849 118.735 94.533V99.1575ZM118.735 87.1619C118.735 87.2099 118.726 87.2574 118.707 87.3017C118.689 87.346 118.662 87.3863 118.628 87.4202C118.594 87.4542 118.554 87.4811 118.51 87.4994C118.465 87.5178 118.418 87.5272 118.37 87.5272H104.775C104.678 87.5265 104.586 87.4878 104.518 87.4195C104.449 87.3511 104.411 87.2586 104.41 87.1619V82.5212C104.411 82.4248 104.449 82.3326 104.518 82.2646C104.586 82.1967 104.679 82.1586 104.775 82.1586H118.37C118.418 82.1582 118.465 82.1674 118.509 82.1854C118.554 82.2035 118.594 82.2301 118.628 82.2638C118.662 82.2975 118.689 82.3376 118.707 82.3818C118.726 82.426 118.735 82.4733 118.735 82.5212V87.1619ZM118.735 75.1664C118.735 75.2142 118.726 75.2616 118.707 75.3058C118.689 75.3499 118.662 75.39 118.628 75.4237C118.594 75.4574 118.554 75.4841 118.509 75.5022C118.465 75.5202 118.418 75.5293 118.37 75.529H104.775C104.679 75.529 104.586 75.4909 104.518 75.4229C104.449 75.355 104.411 75.2628 104.41 75.1664V70.5256C104.411 70.429 104.449 70.3365 104.518 70.2681C104.586 70.1998 104.678 70.161 104.775 70.1603H118.37C118.418 70.1603 118.465 70.1698 118.51 70.1881C118.554 70.2065 118.594 70.2334 118.628 70.2673C118.662 70.3013 118.689 70.3415 118.707 70.3858C118.726 70.4302 118.735 70.4777 118.735 70.5256V75.1664ZM118.735 63.1681C118.736 63.2162 118.726 63.2639 118.708 63.3083C118.69 63.3528 118.663 63.3932 118.629 63.4272C118.595 63.4612 118.555 63.4881 118.51 63.5063C118.466 63.5246 118.418 63.5338 118.37 63.5334H104.775C104.678 63.5334 104.585 63.4949 104.517 63.4264C104.448 63.3579 104.41 63.265 104.41 63.1681V58.5436C104.41 58.4467 104.448 58.3538 104.517 58.2853C104.585 58.2168 104.678 58.1783 104.775 58.1783H118.37C118.418 58.178 118.466 58.1872 118.51 58.2054C118.555 58.2236 118.595 58.2505 118.629 58.2845C118.663 58.3185 118.69 58.3589 118.708 58.4034C118.726 58.4479 118.736 58.4955 118.735 58.5436V63.1681ZM140.759 135.147C140.759 135.195 140.75 135.242 140.731 135.286C140.713 135.33 140.686 135.37 140.652 135.404C140.618 135.438 140.578 135.465 140.533 135.483C140.489 135.501 140.442 135.51 140.394 135.509H126.799C126.703 135.509 126.61 135.471 126.542 135.403C126.473 135.335 126.434 135.243 126.434 135.147V130.522C126.434 130.426 126.473 130.333 126.541 130.265C126.61 130.196 126.702 130.158 126.799 130.157H140.394C140.491 130.157 140.584 130.196 140.652 130.264C140.721 130.333 140.759 130.425 140.759 130.522V135.147ZM140.759 123.149C140.759 123.197 140.75 123.244 140.732 123.289C140.714 123.333 140.687 123.374 140.653 123.408C140.619 123.442 140.578 123.469 140.534 123.487C140.49 123.505 140.442 123.514 140.394 123.514H126.799C126.702 123.514 126.609 123.475 126.541 123.407C126.472 123.338 126.434 123.245 126.434 123.149V118.513C126.434 118.416 126.472 118.323 126.541 118.255C126.609 118.186 126.702 118.148 126.799 118.148H140.394C140.442 118.148 140.49 118.157 140.534 118.175C140.578 118.193 140.619 118.22 140.653 118.254C140.687 118.288 140.714 118.329 140.732 118.373C140.75 118.418 140.759 118.465 140.759 118.513V123.149ZM140.759 111.153C140.759 111.25 140.721 111.343 140.652 111.411C140.584 111.48 140.491 111.518 140.394 111.518H126.799C126.702 111.518 126.61 111.479 126.541 111.411C126.473 111.342 126.434 111.25 126.434 111.153V106.515C126.434 106.418 126.473 106.326 126.541 106.257C126.61 106.189 126.702 106.15 126.799 106.15H140.394C140.491 106.15 140.584 106.188 140.652 106.257C140.721 106.325 140.759 106.418 140.759 106.515V111.153ZM140.759 99.1548C140.759 99.2028 140.75 99.2505 140.732 99.295C140.714 99.3395 140.687 99.3799 140.653 99.4139C140.619 99.4479 140.578 99.4748 140.534 99.493C140.49 99.5112 140.442 99.5204 140.394 99.5201H126.799C126.702 99.5201 126.609 99.4816 126.541 99.4131C126.472 99.3446 126.434 99.2517 126.434 99.1548V94.533C126.434 94.4361 126.472 94.3432 126.541 94.2747C126.609 94.2062 126.702 94.1677 126.799 94.1677H140.394C140.442 94.1673 140.49 94.1765 140.534 94.1948C140.578 94.213 140.619 94.2399 140.653 94.2739C140.687 94.3079 140.714 94.3483 140.732 94.3928C140.75 94.4372 140.759 94.4849 140.759 94.533V99.1548ZM140.759 87.1592C140.759 87.2561 140.721 87.349 140.652 87.4175C140.584 87.486 140.491 87.5245 140.394 87.5245H126.799C126.702 87.5238 126.61 87.4851 126.541 87.4167C126.473 87.3484 126.434 87.2559 126.434 87.1592V82.5212C126.434 82.4248 126.473 82.3326 126.542 82.2646C126.61 82.1967 126.703 82.1586 126.799 82.1586H140.394C140.442 82.1582 140.489 82.1674 140.533 82.1854C140.578 82.2035 140.618 82.2301 140.652 82.2638C140.686 82.2975 140.713 82.3376 140.731 82.3818C140.75 82.426 140.759 82.4733 140.759 82.5212V87.1592ZM140.759 75.1637C140.759 75.2115 140.75 75.2589 140.731 75.3031C140.713 75.3472 140.686 75.3873 140.652 75.421C140.618 75.4547 140.578 75.4814 140.533 75.4995C140.489 75.5175 140.442 75.5266 140.394 75.5263H126.799C126.703 75.5263 126.61 75.4882 126.542 75.4202C126.473 75.3523 126.434 75.2601 126.434 75.1637V70.5256C126.434 70.429 126.473 70.3365 126.541 70.2681C126.61 70.1998 126.702 70.161 126.799 70.1603H140.394C140.491 70.1603 140.584 70.1988 140.652 70.2673C140.721 70.3358 140.759 70.4288 140.759 70.5256V75.1637ZM140.759 63.1654C140.759 63.2135 140.75 63.2612 140.732 63.3056C140.714 63.3501 140.687 63.3905 140.653 63.4245C140.619 63.4585 140.578 63.4854 140.534 63.5036C140.49 63.5219 140.442 63.5311 140.394 63.5307H126.799C126.702 63.5307 126.609 63.4922 126.541 63.4237C126.472 63.3552 126.434 63.2623 126.434 63.1654V58.5436C126.434 58.4467 126.472 58.3538 126.541 58.2853C126.609 58.2168 126.702 58.1783 126.799 58.1783H140.394C140.442 58.178 140.49 58.1872 140.534 58.2054C140.578 58.2236 140.619 58.2505 140.653 58.2845C140.687 58.3185 140.714 58.3589 140.732 58.4034C140.75 58.4479 140.759 58.4955 140.759 58.5436V63.1654ZM172.99 135.144C172.989 135.241 172.95 135.333 172.882 135.401C172.813 135.469 172.721 135.507 172.625 135.507H159.03C158.982 135.507 158.934 135.498 158.89 135.48C158.846 135.462 158.806 135.435 158.772 135.401C158.738 135.368 158.711 135.328 158.692 135.284C158.674 135.239 158.664 135.192 158.664 135.144V130.522C158.664 130.425 158.703 130.333 158.771 130.264C158.84 130.196 158.933 130.157 159.03 130.157H172.625C172.721 130.158 172.814 130.196 172.882 130.265C172.95 130.333 172.989 130.426 172.99 130.522V135.144ZM172.99 123.146C172.99 123.243 172.951 123.336 172.883 123.404C172.814 123.473 172.721 123.511 172.625 123.511H159.03C158.982 123.512 158.934 123.502 158.89 123.484C158.845 123.466 158.805 123.439 158.771 123.405C158.737 123.371 158.71 123.331 158.692 123.286C158.673 123.242 158.664 123.194 158.664 123.146V118.513C158.664 118.465 158.673 118.418 158.692 118.373C158.71 118.329 158.737 118.288 158.771 118.254C158.805 118.22 158.845 118.193 158.89 118.175C158.934 118.157 158.982 118.148 159.03 118.148H172.625C172.721 118.148 172.814 118.186 172.883 118.255C172.951 118.323 172.99 118.416 172.99 118.513V123.146ZM172.99 111.15C172.989 111.247 172.95 111.34 172.882 111.408C172.814 111.476 172.721 111.515 172.625 111.516H159.03C158.933 111.516 158.84 111.477 158.771 111.409C158.703 111.34 158.664 111.247 158.664 111.15V106.515C158.664 106.418 158.703 106.325 158.771 106.257C158.84 106.188 158.933 106.15 159.03 106.15H172.625C172.721 106.15 172.814 106.189 172.882 106.257C172.95 106.326 172.989 106.418 172.99 106.515V111.15ZM172.99 99.1521C172.99 99.249 172.951 99.3419 172.883 99.4104C172.814 99.4789 172.721 99.5174 172.625 99.5174H159.03C158.935 99.5167 158.844 99.4789 158.777 99.4121C158.71 99.3454 158.671 99.255 158.67 99.1602V94.533C158.67 94.4849 158.679 94.4372 158.697 94.3928C158.715 94.3483 158.742 94.3079 158.776 94.2739C158.81 94.2399 158.85 94.213 158.895 94.1948C158.939 94.1765 158.987 94.1673 159.035 94.1677H172.63C172.727 94.1677 172.82 94.2062 172.888 94.2747C172.957 94.3432 172.995 94.4361 172.995 94.533L172.99 99.1521ZM172.99 87.1565C172.989 87.2532 172.95 87.3457 172.882 87.414C172.814 87.4824 172.721 87.5211 172.625 87.5218H159.03C158.933 87.5218 158.84 87.4833 158.771 87.4148C158.703 87.3463 158.664 87.2534 158.664 87.1565V82.5212C158.664 82.4733 158.674 82.426 158.692 82.3818C158.711 82.3376 158.738 82.2975 158.772 82.2638C158.806 82.2301 158.846 82.2035 158.89 82.1854C158.934 82.1674 158.982 82.1582 159.03 82.1586H172.625C172.721 82.1586 172.813 82.1967 172.882 82.2646C172.95 82.3326 172.989 82.4248 172.99 82.5212V87.1565ZM172.99 75.161C172.989 75.2574 172.95 75.3496 172.882 75.4175C172.813 75.4854 172.721 75.5236 172.625 75.5236H159.03C158.982 75.5239 158.934 75.5148 158.89 75.4967C158.846 75.4787 158.806 75.452 158.772 75.4183C158.738 75.3846 158.711 75.3445 158.692 75.3004C158.674 75.2562 158.664 75.2088 158.664 75.161V70.5256C158.664 70.4288 158.703 70.3358 158.771 70.2673C158.84 70.1988 158.933 70.1603 159.03 70.1603H172.625C172.721 70.161 172.814 70.1998 172.882 70.2681C172.95 70.3365 172.989 70.429 172.99 70.5256V75.161ZM172.99 63.1627C172.99 63.2107 172.98 63.2582 172.962 63.3025C172.944 63.3468 172.917 63.3871 172.883 63.421C172.849 63.4549 172.809 63.4818 172.764 63.5002C172.72 63.5186 172.673 63.528 172.625 63.528H159.03C158.935 63.5273 158.844 63.4895 158.777 63.4228C158.71 63.356 158.671 63.2656 158.67 63.1708V58.5436C158.67 58.4955 158.679 58.4479 158.697 58.4034C158.715 58.3589 158.742 58.3185 158.776 58.2845C158.81 58.2505 158.85 58.2236 158.895 58.2054C158.939 58.1872 158.987 58.178 159.035 58.1783H172.63C172.727 58.1783 172.82 58.2168 172.888 58.2853C172.957 58.3538 172.995 58.4467 172.995 58.5436L172.99 63.1627Z" fill="#F2F2F2"/>
<path d="M72.2899 11.9712L68.0903 14.6339L70.6393 9.99583C69.9175 9.41993 69.0244 9.10097 68.1011 9.08933H68.0334C67.7416 9.0937 67.45 9.07196 67.1621 9.02439L65.7388 9.92547L66.3476 8.81602C65.3382 8.46408 64.4665 7.80085 63.8581 6.92185L61.3118 8.54543L62.9192 5.62028C61.4309 3.83163 59.4231 2.73572 57.2123 2.73572C54.5631 2.73572 52.2035 4.31059 50.6801 6.7649C50.2296 7.50184 49.5912 8.10573 48.8304 8.51466C48.0696 8.92359 47.2137 9.12286 46.3505 9.09203H46.2098C43.2847 9.09203 40.9142 12.4095 40.9142 16.4983C40.9142 20.587 43.2955 23.9072 46.2206 23.9072C46.8632 23.9039 47.4955 23.7451 48.0634 23.4445C49.059 22.9601 50.148 22.6981 51.2549 22.6766C52.3619 22.6551 53.4602 22.8746 54.4738 23.32C55.3311 23.7035 56.2596 23.9017 57.1988 23.9017C58.1379 23.9017 59.0664 23.7035 59.9237 23.32C60.9292 22.8839 62.0168 22.6693 63.1127 22.6908C64.2085 22.7123 65.2869 22.9693 66.2746 23.4445C66.8376 23.7426 67.464 23.9013 68.1011 23.9072C71.0262 23.9072 73.3967 20.5897 73.3967 16.4983C73.4141 14.9202 73.0334 13.3632 72.2899 11.9712Z" fill="#F2F2F2"/>
<path opacity="0.03" d="M64.375 22.8086C62.847 22.5177 61.267 22.6892 59.8371 23.3011C58.9801 23.6837 58.052 23.8814 57.1135 23.8814C56.175 23.8814 55.247 23.6837 54.3899 23.3011C53.376 22.857 52.2778 22.6381 51.1711 22.6596C50.0643 22.6811 48.9754 22.9424 47.9795 23.4256C47.4112 23.7278 46.7777 23.8866 46.134 23.8883C43.5363 23.8883 41.3742 21.2716 40.925 17.8188C41.4443 17.4397 41.8854 16.9637 42.2239 16.4171C43.7474 13.9628 46.107 12.3879 48.7561 12.3879C51.4053 12.3879 53.7351 13.9439 55.2504 16.3738C55.7042 17.1077 56.3402 17.7117 57.0965 18.1271C57.8528 18.5425 58.7037 18.7551 59.5665 18.7443H59.6341C61.7123 18.7307 63.5036 20.3895 64.375 22.8086Z" fill="#30475E"/>
<path d="M220.301 4.60826L218.201 5.93689L219.473 3.62329C219.113 3.3363 218.667 3.17733 218.206 3.17139H218.174C218.028 3.17426 217.882 3.16338 217.738 3.13892L217.029 3.59082L217.332 3.04962C216.83 2.87344 216.396 2.54408 216.09 2.10795L214.821 2.91974L215.633 1.46122C215.298 1.02102 214.869 0.661331 214.377 0.408501C213.884 0.15567 213.342 0.0160973 212.789 0C211.469 0 210.291 0.787437 209.542 2.01053C209.316 2.3785 208.997 2.67991 208.617 2.88389C208.236 3.08786 207.808 3.18709 207.377 3.17139H207.307C205.848 3.17139 204.666 4.82474 204.666 6.86504C204.666 8.90534 205.848 10.5587 207.307 10.5587C207.628 10.5576 207.943 10.4787 208.227 10.3287C208.723 10.0875 209.266 9.95698 209.818 9.94623C210.37 9.93548 210.917 10.0447 211.423 10.2664C211.85 10.4574 212.314 10.5561 212.782 10.5561C213.251 10.5561 213.714 10.4574 214.142 10.2664C214.644 10.0493 215.187 9.94252 215.733 9.95325C216.28 9.96399 216.818 10.092 217.311 10.3287C217.591 10.4754 217.903 10.5525 218.22 10.5533C219.678 10.5533 220.861 8.89993 220.861 6.85963C220.865 6.07417 220.673 5.30017 220.301 4.60826Z" fill="#F2F2F2"/>
<path opacity="0.03" d="M216.353 10.012C215.59 9.86864 214.802 9.95433 214.088 10.2583C213.662 10.4477 213.201 10.5455 212.735 10.5451C212.269 10.5427 211.808 10.4432 211.382 10.2529C210.876 10.0311 210.328 9.92185 209.776 9.93259C209.224 9.94334 208.68 10.0739 208.184 10.3151C207.9 10.4655 207.584 10.5444 207.264 10.5451C205.967 10.5451 204.89 9.24085 204.666 7.51715C204.925 7.32815 205.145 7.09114 205.315 6.81901C206.073 5.59591 207.25 4.80847 208.562 4.80847C209.875 4.80847 211.046 5.58508 211.81 6.79736C212.037 7.16517 212.356 7.46756 212.736 7.67486C213.115 7.88217 213.542 7.98727 213.974 7.97987H214.009C215.024 7.97987 215.917 8.80789 216.353 10.012Z" fill="#30475E"/>
<path d="M167.721 28.943L165.259 30.5043L166.753 27.7984C166.331 27.4572 165.807 27.2667 165.264 27.2572H165.224C165.052 27.2596 164.881 27.2469 164.712 27.2193L163.879 27.7605L164.236 27.1084C163.645 26.9023 163.133 26.5151 162.775 26.0016L161.281 26.9487L162.226 25.2331C161.828 24.72 161.322 24.3017 160.743 24.0087C160.164 23.7157 159.527 23.5553 158.878 23.5392C157.325 23.5392 155.94 24.4646 155.047 25.9042C154.781 26.3332 154.407 26.6843 153.963 26.9219C153.518 27.1596 153.018 27.2752 152.514 27.2572H152.43C150.714 27.2572 149.326 29.2028 149.326 31.5867C149.326 33.9707 150.714 35.9298 152.43 35.9298C152.807 35.9291 153.179 35.8363 153.512 35.6592C154.096 35.3755 154.735 35.2221 155.384 35.2095C156.033 35.1969 156.677 35.3254 157.271 35.5862C157.774 35.81 158.318 35.9257 158.869 35.9257C159.419 35.9257 159.964 35.81 160.467 35.5862C161.057 35.3306 161.695 35.2049 162.338 35.2175C162.981 35.2301 163.613 35.3807 164.193 35.6592C164.527 35.835 164.898 35.9279 165.275 35.9298C166.991 35.9298 168.382 33.9869 168.382 31.5867C168.386 30.6642 168.159 29.7552 167.721 28.943Z" fill="#F2F2F2"/>
<path opacity="0.03" d="M163.081 35.2994C162.184 35.1297 161.257 35.2305 160.418 35.589C159.915 35.8129 159.371 35.9286 158.82 35.9286C158.27 35.9286 157.725 35.8129 157.222 35.589C156.628 35.3282 155.984 35.1997 155.335 35.2123C154.686 35.2249 154.047 35.3784 153.464 35.662C153.13 35.8388 152.759 35.9317 152.381 35.9326C150.858 35.9326 149.589 34.3984 149.326 32.3743C149.629 32.1551 149.888 31.8795 150.087 31.5625C150.98 30.1229 152.365 29.2002 153.918 29.2002C155.471 29.2002 156.841 30.1121 157.734 31.5354C157.999 31.9661 158.372 32.3207 158.815 32.5644C159.259 32.8082 159.758 32.9329 160.264 32.9263H160.293C161.517 32.9074 162.569 33.8815 163.081 35.2994Z" fill="#30475E"/>
<path d="M256.323 154.024C256.323 154.489 256.323 154.955 256.293 155.415C256.224 157.205 256.008 158.987 255.649 160.743C253.871 169.432 248.738 176.186 242.29 178.18C241.007 178.579 239.671 178.783 238.328 178.783C228.389 178.783 220.333 167.689 220.333 154.024C220.333 140.359 228.389 129.264 238.328 129.264C247.65 129.264 255.319 139.022 256.231 151.521C256.293 152.343 256.323 153.18 256.323 154.024Z" fill="#30475E"/>
<path opacity="0.1" d="M256.293 155.417C256.224 157.208 256.008 158.99 255.649 160.745C253.871 169.434 248.738 176.188 242.29 178.183C237.297 175.885 233.593 167.275 233.593 157.003C233.593 144.972 238.68 135.22 244.958 135.22C250.226 135.22 254.659 142.099 255.944 151.431C256.123 152.711 256.239 154.048 256.293 155.417Z" fill="#30475E"/>
<path d="M165.943 99.2278C165.943 99.2278 214.651 89.2157 240.358 98.416C240.358 98.416 244.146 100.31 240.358 103.557C240.358 103.557 243.94 107.346 237.684 108.699L212.83 110.228L165.943 105.452V99.2278Z" fill="#3F3D56"/>
<path opacity="0.1" d="M174.467 100.486C174.467 100.486 216.169 91.9135 238.179 99.7906C238.179 99.7906 241.426 101.414 238.179 104.193C238.179 104.193 241.245 107.44 235.89 108.596L214.61 109.903L174.467 105.819V100.486Z" fill="#30475E"/>
<path d="M221.957 115.464L218.71 108.969C218.71 108.969 220.133 102.399 208.562 100.467C207.921 97.6016 205.015 95.4396 201.527 95.4396C198.123 95.4396 195.276 97.4961 194.54 100.256C192.879 100.4 191.109 100.594 189.215 100.852L186.568 115.042L186.238 114.381C186.238 114.381 187.919 106.621 172.773 105.487C173.599 104.486 174.054 103.231 174.061 101.934C174.061 98.4946 170.849 95.7102 166.891 95.7102C162.932 95.7102 159.72 98.4946 159.72 101.934C159.73 103.347 160.267 104.705 161.224 105.744C159.808 105.879 158.314 106.052 156.743 106.263L153.767 122.229L167.567 124.123L189.485 120.876L187.545 116.993L200.039 118.708L221.957 115.464Z" fill="#5BC49D"/>
<path opacity="0.2" d="M221.957 115.464L218.71 108.969C218.71 108.969 220.133 102.399 208.562 100.467C207.921 97.6016 205.015 95.4396 201.527 95.4396C198.123 95.4396 195.276 97.4961 194.54 100.256C192.879 100.4 191.109 100.594 189.215 100.852L186.568 115.042L186.238 114.381C186.238 114.381 187.919 106.621 172.773 105.487C173.599 104.486 174.054 103.231 174.061 101.934C174.061 98.4946 170.849 95.7102 166.891 95.7102C162.932 95.7102 159.72 98.4946 159.72 101.934C159.73 103.347 160.267 104.705 161.224 105.744C159.808 105.879 158.314 106.052 156.743 106.263L153.767 122.229L167.567 124.123L189.485 120.876L187.545 116.993L200.039 118.708L221.957 115.464Z" fill="#30475E"/>
<path d="M175.409 101.09C175.409 101.09 173.244 88.9451 183.256 88.6746C193.268 88.404 190.021 106.263 190.021 106.263C190.021 106.263 197.598 107.887 198.139 110.863C198.68 113.84 171.891 114.652 171.891 114.652L175.409 101.09Z" fill="#5BC49D"/>
<path d="M157.826 165.253C157.826 179.595 147.164 191.231 134.013 191.231C120.862 191.231 110.201 179.595 110.201 165.253C110.201 150.912 120.995 136.976 134.148 136.976C147.302 136.976 157.826 150.906 157.826 165.253Z" fill="#30475E"/>
<path opacity="0.1" d="M134.013 188.252C144.474 188.252 152.955 178.44 152.955 166.336C152.955 154.232 144.474 144.42 134.013 144.42C123.552 144.42 115.071 154.232 115.071 166.336C115.071 178.44 123.552 188.252 134.013 188.252Z" fill="#30475E"/>
<path d="M29.2921 188.793C42.4434 188.793 53.1046 177.162 53.1046 162.815C53.1046 148.469 42.4434 136.838 29.2921 136.838C16.1408 136.838 5.47961 148.469 5.47961 162.815C5.47961 177.162 16.1408 188.793 29.2921 188.793Z" fill="#30475E"/>
<path d="M69.8816 100.851C69.8816 100.851 58.7871 101.393 59.3283 107.346C59.8695 113.299 68.7992 108.969 68.7992 108.969L69.8816 100.851Z" fill="#30475E"/>
<path d="M162.188 110.769L166.755 80.2861C166.755 80.2861 167.838 76.4977 153.225 76.4977C153.225 76.4977 106.412 73.5211 94.5059 78.3919C94.5059 78.3919 80.7055 83.5332 61.4931 110.052C61.4931 110.052 160.293 112.392 162.188 110.769Z" fill="#3F3D56"/>
<path d="M160.532 78.9331L152.143 112.217L146.883 112.089L121.988 111.483L66.464 110.13C66.3098 107.5 92.6036 80.2861 92.6036 80.2861L160.532 78.9331Z" fill="#30475E"/>
<path opacity="0.2" d="M121.996 111.483L124.263 102.716C124.263 102.716 122.099 90.5688 132.111 90.2982C142.123 90.0276 138.876 107.887 138.876 107.887C138.876 107.887 145.776 109.367 146.875 112.089L121.996 111.483Z" fill="#5BC49D"/>
<path d="M256.458 152.13C254.834 136.435 244.687 133.052 244.687 133.052C234.946 132.511 228.451 169.583 228.451 169.583L153.496 176.348C153.496 176.348 156.067 144.823 137.937 139.682C119.807 134.541 115.071 171.477 114.259 176.619C113.448 181.76 4.93839 176.077 1.96183 173.913C-1.01474 171.748 0.0676492 150.912 0.879439 149.288C1.69123 147.665 3.856 140.359 3.856 140.359C3.856 138.616 4.68944 136.413 5.38217 134.884C5.86924 133.802 6.29137 133.052 6.29137 133.052C8.64286 119.717 20.8522 116.489 21.6721 116.275H21.7154C24.9626 113.028 54.9988 110.864 54.9988 110.864L66.3639 108.699L158.765 110.514L162.696 110.593L209.672 108.333L241.44 106.805C248.746 106.805 252.534 125.205 252.534 125.205C259.299 141.441 256.458 152.13 256.458 152.13Z" fill="#3F3D56"/>
<path opacity="0.1" d="M104.125 136.193C111.262 133.321 115.59 127.37 113.792 122.902C111.994 118.433 104.75 117.139 97.613 120.011C90.4757 122.884 86.1474 128.834 87.9455 133.303C89.7436 137.771 96.9873 139.065 104.125 136.193Z" fill="#30475E"/>
<path d="M103.584 135.11C110.721 132.238 115.049 126.287 113.251 121.818C111.453 117.35 104.209 116.056 97.0722 118.928C89.9349 121.8 85.6066 127.751 87.4047 132.219C89.2028 136.688 96.4464 137.982 103.584 135.11Z" fill="#F2F2F2"/>
<path opacity="0.1" d="M22.2133 116.828C22.0753 119.804 20.7412 123.56 18.341 127.178C14.4796 133.001 9.18403 136.43 5.92334 135.426C6.41041 134.343 6.83255 133.594 6.83255 133.594C9.18403 120.259 21.3934 117.03 22.2133 116.828Z" fill="#30475E"/>
<path d="M21.4015 116.286C21.2635 119.263 19.9295 123.019 17.5293 126.637C13.6678 132.46 8.37226 135.888 5.11157 134.884C5.59865 133.802 6.02078 133.052 6.02078 133.052C8.37226 119.717 20.5816 116.489 21.4015 116.286Z" fill="#F2F2F2"/>
<path d="M59.3284 124.391H37.9512L36.8688 121.414H62.8461L59.3284 124.391Z" fill="#30475E"/>
<path d="M54.4576 146.309H19.28V156.592H54.4576V146.309Z" fill="#30475E"/>
<path opacity="0.1" d="M92.3411 166.604C95.0312 166.604 97.2119 164.423 97.2119 161.733C97.2119 159.043 95.0312 156.862 92.3411 156.862C89.6511 156.862 87.4704 159.043 87.4704 161.733C87.4704 164.423 89.6511 166.604 92.3411 166.604Z" fill="#30475E"/>
<path d="M91.7999 165.792C94.49 165.792 96.6707 163.611 96.6707 160.921C96.6707 158.231 94.49 156.051 91.7999 156.051C89.1099 156.051 86.9292 158.231 86.9292 160.921C86.9292 163.611 89.1099 165.792 91.7999 165.792Z" fill="#F2F2F2"/>
<path opacity="0.1" d="M3.85596 163.086C5.20098 163.086 6.29133 160.784 6.29133 157.945C6.29133 155.105 5.20098 152.803 3.85596 152.803C2.51095 152.803 1.42059 155.105 1.42059 157.945C1.42059 160.784 2.51095 163.086 3.85596 163.086Z" fill="#30475E"/>
<path d="M3.0442 162.815C4.38921 162.815 5.47957 160.514 5.47957 157.674C5.47957 154.835 4.38921 152.533 3.0442 152.533C1.69918 152.533 0.608826 154.835 0.608826 157.674C0.608826 160.514 1.69918 162.815 3.0442 162.815Z" fill="#F2F2F2"/>
<path d="M217.627 136.029C214.651 145.229 214.38 159.571 214.38 159.571L213.298 163.359L160.532 169.312C160.532 169.312 160.802 142.794 161.614 130.346C162.185 121.566 160.066 114.132 158.765 110.514L162.696 110.593L209.672 108.333C217.519 113.835 220.298 127.768 217.627 136.029Z" fill="#30475E"/>
<path d="M205.597 119.441C205.412 119.454 205.232 119.504 205.068 119.59C204.904 119.676 204.76 119.796 204.645 119.941C204.529 120.086 204.446 120.253 204.399 120.432C204.352 120.611 204.344 120.798 204.374 120.981C204.399 121.134 204.462 121.278 204.556 121.402C204.651 121.525 204.774 121.623 204.915 121.687C205.789 122.123 211.607 121.146 213.812 120.757C214.139 120.704 214.438 120.544 214.665 120.303C214.891 120.061 215.031 119.752 215.062 119.422C215.089 119.038 214.949 118.711 214.386 118.711L205.597 119.441Z" fill="#F2F2F2"/>
<path d="M158.637 109.511C158.637 109.511 159.99 115.464 166.485 113.569L168.649 105.181L164.32 102.746L158.637 109.511Z" fill="#30475E"/>
<path d="M166.59 97.423C169.567 95.6587 174.289 94.1163 178.959 97.8208C179.931 98.5883 180.617 99.6605 180.906 100.865C181.195 102.069 181.071 103.336 180.553 104.461C179.024 107.771 175.395 111.361 166.923 107.062C166.091 106.64 165.382 106.012 164.861 105.238L164.818 105.173C164.408 104.553 164.128 103.856 163.995 103.125C163.862 102.394 163.879 101.643 164.045 100.919C164.211 100.194 164.522 99.5106 164.959 98.9098C165.397 98.309 165.952 97.8032 166.59 97.423Z" fill="#30475E"/>
<path d="M134.148 170.527C137.137 170.527 139.56 168.104 139.56 165.116C139.56 162.127 137.137 159.704 134.148 159.704C131.159 159.704 128.736 162.127 128.736 165.116C128.736 168.104 131.159 170.527 134.148 170.527Z" fill="#F2F2F2"/>
<path d="M245.905 160.786C247.549 160.786 248.881 158.363 248.881 155.374C248.881 152.385 247.549 149.962 245.905 149.962C244.261 149.962 242.928 152.385 242.928 155.374C242.928 158.363 244.261 160.786 245.905 160.786Z" fill="#F2F2F2"/>
<path d="M134.284 148.474H133.742C131.949 148.474 130.495 149.928 130.495 151.721V154.697C130.495 156.491 131.949 157.945 133.742 157.945H134.284C136.077 157.945 137.531 156.491 137.531 154.697V151.721C137.531 149.928 136.077 148.474 134.284 148.474Z" fill="#30475E"/>
<path d="M245.905 138.056C246.154 138.056 246.4 138.105 246.63 138.2C246.86 138.295 247.068 138.435 247.244 138.611C247.42 138.786 247.56 138.995 247.655 139.225C247.75 139.455 247.799 139.701 247.799 139.95V144.28C247.799 145.141 247.457 145.967 246.848 146.576C246.239 147.185 245.413 147.527 244.552 147.527C244.05 147.527 243.568 147.327 243.212 146.972C242.857 146.617 242.658 146.135 242.658 145.633V141.303C242.658 140.442 243 139.616 243.609 139.007C244.218 138.398 245.044 138.056 245.905 138.056Z" fill="#30475E"/>
<path d="M245.905 172.695C245.044 172.695 244.218 172.353 243.609 171.744C243 171.135 242.658 170.309 242.658 169.448V166.471C242.658 165.61 243 164.784 243.609 164.175C244.218 163.566 245.044 163.224 245.905 163.224C247.691 163.224 247.528 164.685 247.528 166.471V169.448C247.526 171.234 247.696 172.695 245.905 172.695Z" fill="#30475E"/>
<path d="M237.787 150.503C238.648 150.503 239.474 150.845 240.083 151.454C240.692 152.063 241.034 152.889 241.034 153.75V157.809C241.034 158.384 240.806 158.934 240.4 159.34C239.994 159.746 239.443 159.974 238.869 159.974C238.008 159.974 237.182 159.632 236.573 159.023C235.964 158.414 235.622 157.588 235.622 156.727V152.668C235.622 152.094 235.85 151.543 236.256 151.137C236.662 150.731 237.213 150.503 237.787 150.503Z" fill="#30475E"/>
<path d="M256.323 154.024C256.323 154.489 256.323 154.954 256.293 155.414C256.224 157.205 256.008 158.987 255.649 160.743C255.47 160.773 255.289 160.788 255.108 160.789C254.247 160.789 253.421 160.446 252.812 159.837C252.203 159.228 251.861 158.403 251.861 157.541V154.565C251.861 153.704 252.203 152.878 252.812 152.269C253.421 151.66 254.247 151.318 255.108 151.318C255.391 151.317 255.673 151.354 255.947 151.429C256.044 151.456 256.141 151.485 256.233 151.521C256.293 152.343 256.323 153.179 256.323 154.024Z" fill="#30475E"/>
<path d="M147.949 159.974H147.408C145.614 159.974 144.16 161.428 144.16 163.221V166.198C144.16 167.991 145.614 169.445 147.408 169.445H147.949C149.742 169.445 151.196 167.991 151.196 166.198V163.221C151.196 161.428 149.742 159.974 147.949 159.974Z" fill="#30475E"/>
<path d="M121.43 159.974H120.889C119.096 159.974 117.642 161.428 117.642 163.221V166.198C117.642 167.991 119.096 169.445 120.889 169.445H121.43C123.224 169.445 124.677 167.991 124.677 166.198V163.221C124.677 161.428 123.224 159.974 121.43 159.974Z" fill="#30475E"/>
<path d="M134.419 174.045H133.878C132.084 174.045 130.631 175.499 130.631 177.292V180.269C130.631 182.062 132.084 183.516 133.878 183.516H134.419C136.212 183.516 137.666 182.062 137.666 180.269V177.292C137.666 175.499 136.212 174.045 134.419 174.045Z" fill="#30475E"/>
<path d="M228.657 55.7456C228.655 56.2617 228.564 56.7736 228.386 57.2583C228.078 58.1195 227.514 58.866 226.769 59.3979C226.025 59.9298 225.136 60.2218 224.221 60.2347C223.306 60.2476 222.409 59.981 221.65 59.4703C220.891 58.9597 220.306 58.2295 219.973 57.3773C219.769 56.8603 219.665 56.3095 219.665 55.7537C219.665 54.5624 220.138 53.4199 220.981 52.5775C221.823 51.7351 222.966 51.2618 224.157 51.2618C225.348 51.2618 226.491 51.7351 227.333 52.5775C228.176 53.4199 228.649 54.5624 228.649 55.7537L228.657 55.7456Z" fill="#FF6584"/>
<path d="M220.577 56.8659C220.291 56.3501 220.109 55.783 220.042 55.1969C219.975 54.6108 220.024 54.0173 220.186 53.4501C220.348 52.883 220.621 52.3534 220.988 51.8916C221.355 51.4297 221.809 51.0447 222.325 50.7585C222.826 50.4747 223.377 50.2909 223.949 50.2173C223.33 50.1953 222.713 50.3016 222.137 50.5294C221.561 50.7572 221.039 51.1016 220.602 51.541C220.166 51.9804 219.825 52.5053 219.601 53.0827C219.377 53.6602 219.275 54.2776 219.301 54.8964C219.328 55.5151 219.481 56.1218 219.753 56.6782C220.025 57.2346 220.409 57.7289 220.881 58.1298C221.353 58.5308 221.903 58.8298 222.496 59.0081C223.089 59.1864 223.713 59.2401 224.327 59.1659C223.557 59.1367 222.808 58.9097 222.151 58.5068C221.494 58.104 220.952 57.5389 220.577 56.8659Z" fill="#FF6584"/>
<path d="M230.584 62.002H218.55V80.7732H230.584V62.002Z" fill="#FF6584"/>
<path opacity="0.1" d="M230.854 61.4607H218.821V80.232H230.854V61.4607Z" fill="#30475E"/>
<path d="M199.53 130.106C199.53 130.106 198.247 133.623 195.2 134.116C192.154 134.608 190.395 135.393 190.395 135.393L197.614 140.045L201.465 139.563C201.465 139.563 201.944 134.589 203.548 133.466C205.153 132.343 199.53 130.106 199.53 130.106Z" fill="#FBBEBE"/>
<path d="M251.679 130.106C251.679 130.106 252.962 133.623 256.009 134.116C259.056 134.608 260.82 135.401 260.82 135.401L253.601 140.053L249.75 139.571C249.75 139.571 249.271 134.597 247.666 133.475C246.062 132.352 251.679 130.106 251.679 130.106Z" fill="#FBBEBE"/>
<path d="M216.545 98.9816C216.545 98.9816 214.618 99.9449 213.977 101.869C213.977 101.869 210.459 102.992 208.522 106.041C208.522 106.041 206.116 108.607 205.794 109.892C205.472 111.177 201.784 118.887 201.784 118.887C201.784 118.887 198.096 130.917 196.169 132.203C196.169 132.203 202.266 130.917 203.389 137.014C203.389 137.014 204.834 137.014 206.438 131.399C208.043 125.784 211.891 118.887 211.891 118.887C211.891 118.887 213.176 114.073 214.299 113.272C215.422 112.471 217.186 108.78 218.791 109.741C220.396 110.701 230.984 109.581 230.984 109.581C230.984 109.581 237.24 112.468 237.4 114.395C237.56 116.321 238.685 116.478 238.845 118.083C239.005 119.688 244.942 132.362 244.942 132.362C244.942 132.362 246.065 135.88 246.384 136.692C246.384 136.692 249.915 128.19 254.567 133.001C254.567 133.001 254.407 129.792 252.962 127.86C251.517 125.928 245.261 110.853 245.261 110.853C245.261 110.853 244.62 108.607 243.978 107.965C243.337 107.324 238.363 102.191 236.602 102.191C236.602 102.191 235.638 99.7825 234.515 99.4632L216.545 98.9816Z" fill="#696880"/>
<path d="M202.106 138.448C200.852 138.951 199.49 139.121 198.151 138.941C196.812 138.761 195.543 138.237 194.467 137.42C193.422 136.618 192.276 135.955 191.06 135.447C189.361 134.76 187.323 134.249 186.704 135.401C185.581 137.485 200.342 142.621 200.342 142.621C200.342 142.621 202.266 141.495 202.106 138.448Z" fill="#696880"/>
<path d="M249.111 138.448C250.365 138.951 251.728 139.121 253.066 138.941C254.405 138.761 255.674 138.237 256.75 137.42C257.796 136.618 258.941 135.955 260.157 135.447C261.856 134.76 263.894 134.249 264.514 135.401C265.637 137.485 250.876 142.621 250.876 142.621C250.876 142.621 248.952 141.495 249.111 138.448Z" fill="#696880"/>
<path d="M221.789 72.593C221.727 73.1504 221.546 73.7538 221.069 74.0515C220.68 74.295 220.187 74.2734 219.738 74.3681C219.266 74.4851 218.828 74.7117 218.46 75.0295C218.092 75.3473 217.804 75.7474 217.619 76.1973C217.26 77.1056 217.19 78.1026 217.419 79.0521C217.524 79.5182 217.66 79.9765 217.828 80.424C218.301 81.7554 218.869 83.0732 219.746 84.1826C220.497 85.0615 221.341 85.8563 222.263 86.553C222.834 87.0185 223.424 87.4947 224.127 87.7139C224.605 87.8403 225.097 87.9048 225.591 87.906C226.2 87.9358 226.847 87.9547 227.374 87.6517C228.186 87.1835 228.43 86.1471 228.868 85.3191C229.244 84.6129 229.802 84.0176 230.151 83.2978C230.398 82.7332 230.579 82.1421 230.692 81.5362L231.441 78.2051C231.712 76.9983 231.961 75.6345 231.279 74.5981C231.231 74.5125 231.162 74.4408 231.079 74.3897C230.949 74.3372 230.808 74.3222 230.67 74.3464C229.807 74.4044 228.946 74.2078 228.194 73.7809C228.075 73.7217 227.969 73.6388 227.883 73.5373C227.773 73.366 227.706 73.1697 227.691 72.9664C227.618 72.5531 227.502 72.1487 227.345 71.7595C227.3 71.6206 227.219 71.4963 227.109 71.3996C226.995 71.3274 226.865 71.2838 226.73 71.2725C225.572 71.0836 224.404 70.9607 223.231 70.9044C222.845 70.8882 222.265 70.734 222.003 71.0722C221.74 71.4105 221.832 72.1871 221.789 72.593Z" fill="#FBBEBE"/>
<path opacity="0.1" d="M221.789 72.593C221.727 73.1504 221.546 73.7538 221.069 74.0515C220.68 74.295 220.187 74.2734 219.738 74.3681C219.266 74.4851 218.828 74.7117 218.46 75.0295C218.092 75.3473 217.804 75.7474 217.619 76.1973C217.26 77.1056 217.19 78.1026 217.419 79.0521C217.524 79.5182 217.66 79.9765 217.828 80.424C218.301 81.7554 218.869 83.0732 219.746 84.1826C220.497 85.0615 221.341 85.8563 222.263 86.553C222.834 87.0185 223.424 87.4947 224.127 87.7139C224.605 87.8403 225.097 87.9048 225.591 87.906C226.2 87.9358 226.847 87.9547 227.374 87.6517C228.186 87.1835 228.43 86.1471 228.868 85.3191C229.244 84.6129 229.802 84.0176 230.151 83.2978C230.398 82.7332 230.579 82.1421 230.692 81.5362L231.441 78.2051C231.712 76.9983 231.961 75.6345 231.279 74.5981C231.231 74.5125 231.162 74.4408 231.079 74.3897C230.949 74.3372 230.808 74.3222 230.67 74.3464C229.807 74.4044 228.946 74.2078 228.194 73.7809C228.075 73.7217 227.969 73.6388 227.883 73.5373C227.773 73.366 227.706 73.1697 227.691 72.9664C227.618 72.5531 227.502 72.1487 227.345 71.7595C227.3 71.6206 227.219 71.4963 227.109 71.3996C226.995 71.3274 226.865 71.2838 226.73 71.2725C225.572 71.0836 224.404 70.9607 223.231 70.9044C222.845 70.8882 222.265 70.734 222.003 71.0722C221.74 71.4105 221.832 72.1871 221.789 72.593Z" fill="#30475E"/>
<path d="M219.616 74.5088C218.989 74.3221 218.339 74.2193 217.684 74.2031C216.136 74.1652 214.483 74.701 213.587 75.9647C212.981 76.8757 212.759 77.9889 212.968 79.063C213.184 80.1291 213.669 81.1227 214.375 81.9503C214.783 82.3845 215.146 82.8596 215.457 83.3682C215.885 84.18 215.896 85.1487 215.998 86.0742C216.269 88.2687 217.205 90.336 217.579 92.5171C217.952 94.6981 217.627 97.2309 215.904 98.6217C215.614 98.8544 215.265 99.098 215.241 99.4687C215.2 100.061 215.971 100.316 216.564 100.37C218.336 100.54 220.155 100.705 221.876 100.248C222.59 100.059 223.275 99.7636 224 99.6283C225.843 99.2847 227.694 99.9882 229.534 100.329C230.867 100.548 232.217 100.657 233.568 100.657C233.884 100.685 234.202 100.643 234.499 100.535C234.646 100.477 234.771 100.374 234.856 100.241C234.94 100.108 234.98 99.951 234.97 99.7934C234.911 99.5889 234.801 99.4026 234.651 99.2522C233.72 98.0995 233.436 96.5733 233.181 95.1148L232.343 90.2035C231.885 87.5841 231.46 84.7401 232.7 82.3859C233.593 80.6947 235.233 79.5041 236.174 77.8399C236.507 77.3361 236.658 76.7337 236.602 76.1324C236.461 75.2963 235.706 74.6983 234.932 74.3465C233.445 73.6816 231.758 73.6204 230.226 74.176C230.254 75.3477 229.956 76.5329 229.761 77.6938L229.434 79.5879C229.268 80.7041 229.023 81.8072 228.703 82.8892C228.584 83.3212 228.385 83.7269 228.116 84.0853C227.827 84.4066 227.474 84.6637 227.079 84.8402C226.224 85.258 225.284 85.4719 224.333 85.4653C223.921 85.4737 223.511 85.4114 223.121 85.2813C222.477 85.0486 221.954 84.5696 221.451 84.1042C221.286 83.9636 221.137 83.8037 221.01 83.628C220.877 83.402 220.776 83.1589 220.71 82.9055C220.49 82.2438 220.319 81.5674 220.195 80.8814C220.112 80.3564 220.087 79.8234 220.049 79.293C219.93 77.756 219.933 76.0161 219.616 74.5088Z" fill="#F2F2F2"/>
<path d="M217.987 105.56C217.987 105.56 217.346 114.062 221.356 115.507C225.367 116.952 221.838 108.447 221.838 108.447L220.555 105.879L217.987 105.56Z" fill="#FBBEBE"/>
<path d="M231.625 105.56C231.625 105.56 232.267 114.062 228.256 115.507C224.246 116.952 227.775 108.447 227.775 108.447L229.057 105.879L231.625 105.56Z" fill="#FBBEBE"/>
<path opacity="0.1" d="M214.459 77.1635L213.176 79.2498C213.176 79.2498 214.299 86.4693 214.459 87.7519C214.596 88.6756 214.811 89.5862 215.1 90.4741C215.1 90.4741 215.26 94.3247 215.26 95.767C215.26 97.2093 216.071 99.6176 216.071 99.6176C216.184 100.982 216.456 102.328 216.883 103.628C217.525 105.395 218.169 107.478 218.169 107.478C218.169 107.478 218.98 105.232 222.179 108.601C222.536 108.238 222.737 107.748 222.737 107.238C222.737 106.727 222.536 106.238 222.179 105.874C222.179 105.874 221.215 101.544 221.215 99.2983C221.215 97.0523 219.451 86.3096 219.451 86.3096C219.451 86.3096 218.309 74.1139 214.459 77.1635Z" fill="#30475E"/>
<path d="M214.142 77.0039L212.86 79.0875C212.86 79.0875 213.983 86.307 214.142 87.5923C214.281 88.5169 214.496 89.4284 214.786 90.3172C214.786 90.3172 214.954 94.1678 214.954 95.6155C214.954 97.0632 215.766 99.4661 215.766 99.4661C215.879 100.83 216.151 102.176 216.578 103.476C217.219 105.241 217.86 107.327 217.86 107.327C217.86 107.327 218.672 105.081 221.87 108.45C222.229 108.086 222.43 107.596 222.43 107.086C222.43 106.576 222.229 106.086 221.87 105.722C221.87 105.722 220.907 101.393 220.907 99.1441C220.907 96.8954 219.143 86.1554 219.143 86.1554C219.143 86.1554 217.987 73.9678 214.142 77.0039Z" fill="#F2F2F2"/>
<path opacity="0.1" d="M235.314 75.878L236.125 76.8332C236.125 76.8332 237.072 82.2966 234.986 89.1941L234.345 95.453C234.345 95.453 233.222 100.746 233.06 102.031C232.897 103.317 232.9 103.473 232.581 103.955C232.482 104.068 232.428 104.212 232.428 104.361C232.428 104.51 232.482 104.655 232.581 104.767L231.617 108.298C231.617 108.298 230.172 106.534 227.288 108.78C227.288 108.78 226.476 107.495 227.128 106.372C227.78 105.249 227.769 104.767 227.61 104.448C227.45 104.128 228.251 102.521 228.251 102.202C228.251 101.882 229.374 94.5005 229.374 94.5005C229.374 94.5005 229.856 87.281 230.337 84.8754C230.632 83.3952 230.624 80.0939 230.575 77.7722C230.524 75.3558 233.449 74.0434 235.176 75.7455C235.222 75.7806 235.268 75.8293 235.314 75.878Z" fill="#30475E"/>
<path d="M235.79 75.5588L236.602 76.514C236.602 76.514 237.546 81.9746 235.462 88.8748L234.821 95.131C234.821 95.131 233.698 100.427 233.536 101.709C233.373 102.992 233.376 103.154 233.054 103.633C232.958 103.746 232.904 103.89 232.904 104.039C232.904 104.188 232.958 104.332 233.054 104.445L232.094 107.963C232.094 107.963 230.649 106.198 227.764 108.444C227.764 108.444 226.952 107.162 227.604 106.039C228.257 104.916 228.246 104.434 228.083 104.112C227.921 103.79 228.727 102.188 228.727 101.866C228.727 101.544 229.85 94.165 229.85 94.165C229.85 94.165 230.332 86.9455 230.811 84.5399C231.29 82.1343 230.973 74.9147 230.973 74.9147C230.973 74.9147 233.549 73.1559 235.79 75.5588Z" fill="#F2F2F2"/>
<path d="M225.047 73.3128C228.592 73.3128 231.466 70.4391 231.466 66.8943C231.466 63.3494 228.592 60.4757 225.047 60.4757C221.502 60.4757 218.629 63.3494 218.629 66.8943C218.629 70.4391 221.502 73.3128 225.047 73.3128Z" fill="#FBBEBE"/>
<path opacity="0.1" d="M228.395 57.2582C228.086 58.1195 227.522 58.866 226.777 59.3979C226.033 59.9298 225.144 60.2218 224.229 60.2347C223.315 60.2477 222.418 59.981 221.659 59.4703C220.9 58.9597 220.314 58.2295 219.982 57.3773C222.485 56.3707 225.047 57.2691 225.047 57.2691C226.319 56.8172 227.434 56.8605 228.395 57.2582Z" fill="#30475E"/>
<path d="M225.047 57.5911C225.047 57.5911 212.695 53.2615 215.741 74.2761C215.741 74.2761 218.469 76.0404 220.555 74.9174C220.555 74.9174 219.11 60.3052 224.725 60.96C230.34 61.6149 229.38 74.5954 229.38 74.5954C229.38 74.5954 232.589 75.5587 233.549 73.7836C234.51 72.0085 233.23 54.7011 225.047 57.5911Z" fill="#FF6584"/>
<path opacity="0.1" d="M224.725 59.9967C220.872 59.5556 220.344 66.2908 220.396 70.5635C220.444 66.3179 221.159 60.5514 224.725 60.96C228.735 61.4173 229.39 68.1714 229.439 71.9977C229.482 68.488 229.098 60.4973 224.725 59.9967Z" fill="#30475E"/>
<path opacity="0.1" d="M215.741 73.3128C215.463 71.4686 215.303 69.6085 215.262 67.7439C215.249 69.9269 215.409 72.1076 215.741 74.2653C215.741 74.2653 218.469 76.0296 220.555 74.9066C220.555 74.9066 220.52 74.5602 220.482 73.9784C218.407 75.05 215.741 73.3128 215.741 73.3128Z" fill="#30475E"/>
<path opacity="0.1" d="M233.549 72.8312C232.654 74.4737 229.81 73.7539 229.423 73.643C229.404 74.2383 229.38 74.5928 229.38 74.5928C229.38 74.5928 232.589 75.5561 233.549 73.781C233.75 73.4157 233.853 72.3901 233.82 71.0182C233.793 71.9139 233.698 72.5579 233.549 72.8312Z" fill="#30475E"/>
<path d="M266.446 176.67C267.187 175.298 266.346 173.615 265.38 172.392C264.414 171.169 263.234 169.894 263.258 168.333C263.296 166.092 265.675 164.769 267.588 163.581C268.999 162.699 270.3 161.652 271.465 160.464C271.952 160.006 272.355 159.467 272.656 158.87C273.048 157.993 273.038 156.995 273.013 156.034C272.932 152.836 272.774 149.64 272.54 146.447" stroke="#3F3D56" stroke-width="4" stroke-miterlimit="10"/>
<path d="M276.139 146.274C276.112 145.688 275.938 145.118 275.633 144.618C275.328 144.117 274.902 143.701 274.393 143.408L273.611 144.956L273.636 143.081C273.262 142.972 272.872 142.925 272.483 142.943C271.792 142.975 271.127 143.211 270.57 143.622C270.014 144.032 269.592 144.599 269.357 145.249C269.123 145.899 269.086 146.605 269.253 147.276C269.419 147.947 269.781 148.554 270.292 149.019C270.803 149.485 271.44 149.789 272.124 149.892C272.807 149.995 273.506 149.894 274.132 149.6C274.758 149.306 275.283 148.833 275.64 148.241C275.997 147.649 276.171 146.964 276.139 146.274Z" fill="#5BC49D"/>
<path d="M269.904 169.938C269.551 170.622 268.983 171.17 268.287 171.498C267.591 171.827 266.806 171.916 266.054 171.752C265.302 171.589 264.625 171.182 264.128 170.595C263.63 170.007 263.341 169.272 263.304 168.503C263.279 168.019 263.357 167.535 263.532 167.083C263.787 166.42 264.238 165.851 264.825 165.451C265.412 165.051 266.106 164.839 266.816 164.843C267.526 164.847 268.218 165.067 268.8 165.474C269.382 165.881 269.827 166.455 270.074 167.121L267.891 168.898L270.291 168.341C270.292 168.897 270.159 169.444 269.904 169.938Z" fill="#5BC49D"/>
<path d="M268.178 163.148C267.719 163.17 267.26 163.1 266.828 162.945C266.396 162.789 265.999 162.549 265.66 162.24C265.32 161.931 265.045 161.557 264.85 161.142C264.654 160.726 264.543 160.276 264.522 159.817C264.495 159.27 264.599 158.725 264.825 158.226C265.035 157.759 265.345 157.344 265.733 157.009C266.12 156.675 266.576 156.429 267.068 156.288L267.052 157.731L267.842 156.161C268.768 156.119 269.673 156.446 270.358 157.07C271.044 157.695 271.452 158.566 271.495 159.492C271.516 159.896 271.466 160.3 271.346 160.686C271.135 161.372 270.717 161.976 270.151 162.417C269.584 162.857 268.895 163.113 268.178 163.148Z" fill="#5BC49D"/>
<path d="M276.666 157.501C276.207 157.522 275.749 157.453 275.317 157.297C274.885 157.142 274.488 156.902 274.148 156.593C273.809 156.283 273.533 155.91 273.338 155.494C273.143 155.079 273.032 154.629 273.01 154.17C272.981 153.599 273.094 153.03 273.341 152.514C273.545 152.08 273.837 151.693 274.198 151.376C274.558 151.06 274.98 150.822 275.437 150.676C275.894 150.53 276.376 150.48 276.854 150.528C277.331 150.577 277.793 150.723 278.211 150.958L277.594 152.649L278.863 151.429C279.545 152.052 279.951 152.92 279.994 153.842C280.01 154.166 279.98 154.49 279.905 154.806C279.732 155.546 279.322 156.21 278.737 156.696C278.153 157.182 277.426 157.465 276.666 157.501Z" fill="#5BC49D"/>
<path opacity="0.1" d="M275.67 147.205C274.859 147.294 274.077 147.543 273.267 147.594C272.458 147.646 271.568 147.451 271.057 146.82C270.819 146.455 270.603 146.075 270.41 145.684C270.189 145.339 269.887 145.054 269.531 144.853C269.254 145.392 269.125 145.994 269.154 146.598C269.192 147.448 269.538 148.254 270.128 148.866C270.717 149.479 271.509 149.855 272.356 149.926C273.203 149.997 274.047 149.756 274.73 149.25C275.412 148.744 275.887 148.006 276.065 147.175C275.933 147.18 275.8 147.191 275.67 147.205Z" fill="#30475E"/>
<path opacity="0.1" d="M276.666 157.501C276.207 157.522 275.749 157.453 275.317 157.297C274.885 157.141 274.488 156.902 274.148 156.593C273.809 156.283 273.533 155.91 273.338 155.494C273.143 155.079 273.032 154.629 273.01 154.17C272.981 153.599 273.094 153.03 273.341 152.514C273.618 152.701 273.857 152.94 274.044 153.217C274.293 153.593 274.442 154.029 274.737 154.373C275.278 155.011 276.212 155.222 277.056 155.184C277.9 155.147 278.712 154.914 279.553 154.83C279.67 154.83 279.789 154.811 279.905 154.808C279.731 155.548 279.321 156.211 278.737 156.697C278.152 157.183 277.425 157.465 276.666 157.501Z" fill="#30475E"/>
<path opacity="0.1" d="M268.178 163.148C267.719 163.17 267.26 163.101 266.828 162.945C266.396 162.789 265.999 162.55 265.66 162.24C265.32 161.931 265.045 161.558 264.85 161.142C264.654 160.726 264.543 160.276 264.522 159.817C264.495 159.27 264.599 158.725 264.825 158.226C265.109 158.417 265.356 158.657 265.556 158.935C265.826 159.319 265.997 159.747 266.313 160.115C266.903 160.772 267.896 161.002 268.789 160.983C269.682 160.965 270.489 160.751 271.349 160.686C271.138 161.372 270.72 161.977 270.152 162.418C269.585 162.858 268.895 163.113 268.178 163.148Z" fill="#30475E"/>
<path opacity="0.1" d="M269.904 169.937C269.552 170.622 268.983 171.17 268.287 171.498C267.591 171.827 266.806 171.916 266.054 171.752C265.302 171.589 264.625 171.182 264.128 170.595C263.63 170.007 263.341 169.272 263.304 168.503C263.279 168.019 263.357 167.535 263.532 167.083C263.819 167.272 264.077 167.503 264.297 167.767C264.63 168.173 264.839 168.633 265.234 169.009C265.948 169.713 267.103 170.002 268.129 170.029C268.722 170.033 269.315 170.002 269.904 169.937Z" fill="#30475E"/>
<path d="M261.175 175.09C261.175 175.09 263.932 175.006 264.765 174.413C265.599 173.821 269.008 173.114 269.217 174.064C269.425 175.014 273.362 178.789 270.248 178.813C267.133 178.837 263.009 178.329 262.178 177.823C261.348 177.317 261.175 175.09 261.175 175.09Z" fill="#656380"/>
<path opacity="0.2" d="M270.302 178.483C267.187 178.507 263.063 177.996 262.233 177.493C261.602 177.106 261.35 175.726 261.267 175.087H261.175C261.175 175.087 261.348 177.314 262.178 177.82C263.009 178.326 267.133 178.835 270.248 178.81C271.146 178.81 271.457 178.483 271.441 177.999C271.316 178.299 270.967 178.478 270.302 178.483Z" fill="#30475E"/>
</g>
<defs>
<clipPath id="clip0">
<rect width="280" height="191.228" fill="white"/>
</clipPath>
</defs>
</svg>
