<svg width="32" height="32" viewBox="0 0 32 32" fill="none" xmlns="http://www.w3.org/2000/svg">
<path d="M25.3334 14.6667H9.52004L14.36 8.85338C14.5864 8.58109 14.6952 8.23005 14.6627 7.87748C14.6302 7.52491 14.459 7.19969 14.1867 6.97338C13.9144 6.74706 13.5634 6.63817 13.2108 6.67068C12.8582 6.70319 12.533 6.87442 12.3067 7.14671L5.64004 15.1467C5.59519 15.2103 5.55508 15.2772 5.52004 15.3467C5.52004 15.4134 5.52004 15.4534 5.42671 15.52C5.36627 15.6729 5.33463 15.8357 5.33337 16C5.33463 16.1644 5.36627 16.3272 5.42671 16.48C5.42671 16.5467 5.42671 16.5867 5.52004 16.6534C5.55508 16.7229 5.59519 16.7897 5.64004 16.8534L12.3067 24.8534C12.4321 25.0039 12.5891 25.1249 12.7665 25.2079C12.9439 25.2908 13.1375 25.3337 13.3334 25.3334C13.6449 25.334 13.9468 25.2255 14.1867 25.0267C14.3217 24.9148 14.4333 24.7773 14.5151 24.6222C14.5969 24.467 14.6473 24.2973 14.6634 24.1227C14.6795 23.948 14.661 23.7719 14.609 23.6045C14.5569 23.437 14.4723 23.2814 14.36 23.1467L9.52004 17.3334H25.3334C25.687 17.3334 26.0261 17.1929 26.2762 16.9429C26.5262 16.6928 26.6667 16.3537 26.6667 16C26.6667 15.6464 26.5262 15.3073 26.2762 15.0572C26.0261 14.8072 25.687 14.6667 25.3334 14.6667Z" fill="#30475E"/>
</svg>
