<svg width="32" height="32" viewBox="0 0 32 32" fill="none" xmlns="http://www.w3.org/2000/svg">
<path d="M29.1999 25.0044L28.8977 24.7378C28.0403 23.9738 27.2899 23.0978 26.6666 22.1333C25.9859 20.8022 25.5779 19.3486 25.4666 17.8578V13.4666C25.4725 11.125 24.6231 8.86174 23.0779 7.10218C21.5328 5.34262 19.3983 4.20786 17.0755 3.91109V2.76443C17.0755 2.4497 16.9505 2.14787 16.7279 1.92533C16.5054 1.70278 16.2036 1.57776 15.8888 1.57776C15.5741 1.57776 15.2723 1.70278 15.0497 1.92533C14.8272 2.14787 14.7022 2.4497 14.7022 2.76443V3.92887C12.4002 4.24703 10.2915 5.38865 8.76664 7.1423C7.2418 8.89594 6.40415 11.1428 6.40884 13.4666V17.8578C6.29751 19.3486 5.88953 20.8022 5.20884 22.1333C4.59629 23.0954 3.8579 23.9713 3.01328 24.7378L2.71106 25.0044V27.5111H29.1999V25.0044Z" fill="#30475E"/>
<path d="M13.6178 28.4445C13.6957 29.0079 13.9749 29.5241 14.4038 29.8978C14.8327 30.2714 15.3823 30.4772 15.9511 30.4772C16.5199 30.4772 17.0695 30.2714 17.4984 29.8978C17.9273 29.5241 18.2065 29.0079 18.2845 28.4445H13.6178Z" fill="#30475E"/>
</svg>
